<?xml version="1.0" standalone="no"?>
<!DOCTYPE svg PUBLIC "-//W3C//DTD SVG 1.1//EN" "http://www.w3.org/Graphics/SVG/1.1/DTD/svg11.dtd" >
<svg>
<metadata>
Created by FontForge 20090622 at Fri May 26 19:39:08 2017
 By deploy user
Copyright (C) 1990-1992 
</metadata>
<defs>
<font id="XeniaBoldCyrillic" horiz-adv-x="1274" >
  <font-face 
    font-family="Xenia"
    font-weight="400"
    font-stretch="normal"
    units-per-em="2048"
    panose-1="2 11 5 0 0 0 0 0 0 0"
    ascent="1638"
    descent="-410"
    x-height="1085"
    cap-height="1434"
    bbox="-14 -573 2740 1921"
    underline-thickness="56"
    underline-position="-252"
    unicode-range="U+0020-U+2219"
  />
<missing-glyph horiz-adv-x="1536" 
d="M256 0v1280h1024v-1280h-1024zM1247 33v1214h-958v-1214h958z" />
    <glyph glyph-name=".notdef" horiz-adv-x="1536" 
d="M256 0v1280h1024v-1280h-1024zM1247 33v1214h-958v-1214h958z" />
    <glyph glyph-name=".null" horiz-adv-x="0" 
 />
    <glyph glyph-name="nonmarkingreturn" horiz-adv-x="0" 
 />
    <glyph glyph-name="space" unicode=" " horiz-adv-x="719" 
 />
    <glyph glyph-name="exclam" unicode="!" horiz-adv-x="741" 
d="M133 215q0 69 34 124t90.5 85.5t115.5 30.5q68 0 122.5 -35t84.5 -91t30 -114q0 -61 -30 -115.5t-84 -88.5t-123 -34q-72 0 -127 34t-84 88.5t-29 115.5zM211 541l-88 784q-4 28 -4 41q0 59 37 76.5t120 19.5h58h39h37h47q58 0 92 -8t53 -37.5t19 -91.5l-89 -784h-321z
" />
    <glyph glyph-name="quotedbl" unicode="&#x22;" horiz-adv-x="1049" 
d="M473 1434l-90 -494h-174l-90 494h354zM930 1434l-92 -494h-172l-93 494h357z" />
    <glyph glyph-name="numbersign" unicode="#" horiz-adv-x="1931" 
d="M918 1561l-64 -363h367l63 363h258l-63 -363h333l-40 -246h-326l-72 -401h324l-45 -270h-316l-59 -353h-260l61 353h-364l-62 -353h-258l62 353h-338l49 270h326l69 401h-323l41 246h315l63 363h259zM1188 952h-369l-69 -401h368z" />
    <glyph glyph-name="dollar" unicode="$" horiz-adv-x="1614" 
d="M190 406h457q1 -68 17.5 -104.5t50 -49t84.5 -12.5q95 0 130.5 33t35.5 69q0 48 -54 87.5t-138.5 76l-221.5 96.5q-152 73 -239 159.5t-87 246.5q0 142 67 245.5t181.5 157t249.5 53.5v203h209v-203q161 -4 268 -55.5t161 -147t62 -235.5h-454q0 78 -19 114.5t-48.5 45
t-84.5 8.5q-51 0 -92 -22.5t-41 -84.5q0 -44 30.5 -77t80.5 -57.5t123.5 -50t109.5 -40.5q199 -77 294 -168.5t95 -253.5q0 -74 -21.5 -146t-76 -142t-149 -118.5t-238.5 -62.5v-254h-209v254q-317 0 -425 137t-108 298z" />
    <glyph glyph-name="percent" unicode="%" horiz-adv-x="1989" 
d="M635 -270l-199 118l867 1737l200 -119zM119 1073q0 85 27 176.5t108.5 158.5t226.5 67q135 0 216.5 -57t114 -146.5t32.5 -198.5q0 -222 -105.5 -311.5t-257.5 -89.5q-145 0 -226.5 66.5t-108.5 157.5t-27 177zM481 1284q-37 0 -53 -24.5t-16 -116.5v-142q0 -63 7.5 -94
t20.5 -38t39 -7q34 0 52 24.5t18 114.5v142q0 94 -17 117.5t-51 23.5zM1147 293q0 86 27 177t108.5 157.5t226.5 66.5q180 0 270.5 -106.5t90.5 -294.5q0 -123 -38.5 -212t-120 -138t-202.5 -49q-112 0 -185.5 40.5t-112 104.5t-51.5 130t-13 124zM1509 506
q-46 0 -58.5 -40.5t-12.5 -100.5v-144q0 -64 11.5 -101.5t57.5 -37.5q47 0 58.5 36.5t11.5 102.5v144q0 67 -12.5 104t-55.5 37z" />
    <glyph glyph-name="ampersand" unicode="&#x26;" horiz-adv-x="1817" 
d="M1180 864h473v-246q-33 0 -59.5 -12t-51.5 -36.5t-50.5 -57.5l-61.5 -80q-85 -109 -132 -156q24 -40 54 -63t55 -23q82 0 113 72l153 -143q-72 -154 -258 -154q-53 0 -146 22.5t-188 96.5q-92 -63 -188 -91t-217 -28q-317 0 -425 134t-108 290q0 75 29 158t113 163.5
t229 131.5q-49 62 -75 105.5t-37 81.5t-11 79q0 99 52 181.5t157.5 131.5t257.5 49q130 0 209.5 -45t113 -114.5t33.5 -145.5q0 -107 -69.5 -187.5t-196.5 -152.5l-2 -16q102 -184 125 -221.5t98 -147.5h13q96 144 96 158q0 20 -45 20h-53v246zM915 244q-132 137 -270 383
q-84 -84 -84 -219q0 -112 62 -165t155 -53q63 0 137 54zM819 1012h19q48 36 79 87t31 97q0 58 -25.5 86.5t-66.5 28.5q-54 0 -87.5 -39.5t-33.5 -93.5q0 -44 24 -88.5t60 -77.5z" />
    <glyph glyph-name="quotesingle" unicode="'" horiz-adv-x="594" 
d="M475 1434l-92 -494h-172l-92 494h356z" />
    <glyph glyph-name="parenleft" unicode="(" horiz-adv-x="963" 
d="M819 -270l-205 -236q-154 120 -254 260t-152 277t-70.5 252t-18.5 215q0 92 21 208.5t74.5 251t153 267.5t246.5 243l205 -235q-82 -101 -143 -222t-95 -257t-34 -273q0 -154 38.5 -293t100.5 -254t133 -204z" />
    <glyph glyph-name="parenright" unicode=")" horiz-adv-x="963" 
d="M348 -506l-205 236q110 147 171.5 289t81.5 253t20 209q0 203 -75.5 399t-197.5 353l205 235q186 -143 341 -381.5t155 -588.5q0 -227 -71 -419.5t-183.5 -336.5t-241.5 -248z" />
    <glyph glyph-name="asterisk" unicode="*" horiz-adv-x="1028" 
d="M430 958l-14 64l-74 22q-18 -27 -36 -44t-50 -17q-160 0 -160 107q0 70 27 116.5t78 46.5q67 0 114 -38.5t47 -106.5l72 -23l47 39v72q-45 12 -73.5 50t-28.5 85q0 35 17 66.5t47.5 51t68.5 19.5q54 0 95.5 -38.5t41.5 -98.5q0 -48 -29 -86.5t-75 -48.5v-74l51 -37l70 23
q0 69 45.5 107t115.5 38q47 0 76 -48.5t29 -114.5q0 -107 -160 -107q-19 0 -44 17t-44 44l-68 -22l-18 -64l43 -57q27 12 53 12q53 0 92 -36.5t39 -88.5q0 -57 -32.5 -105t-87.5 -48q-59 0 -103.5 33.5t-44.5 91.5q0 69 31 102l-37 62h-68l-43 -60q33 -40 33 -104
q0 -57 -48.5 -91t-102.5 -34q-48 0 -83.5 45.5t-35.5 107.5q0 52 39 88.5t92 36.5q28 0 55 -12z" />
    <glyph glyph-name="plus" unicode="+" horiz-adv-x="1300" 
d="M780 168h-260v397h-401v264h401v400h260v-400h402v-264h-402v-397z" />
    <glyph glyph-name="comma" unicode="," horiz-adv-x="764" 
d="M348 -31v8q-103 13 -166 87.5t-63 168.5q0 59 32 115.5t90 91.5t128 35q119 0 197.5 -84t78.5 -248q0 -125 -76 -280t-247 -322l-168 125q130 174 194 303z" />
    <glyph glyph-name="hyphen" unicode="-" horiz-adv-x="969" 
d="M119 436v287h731v-287h-731z" />
    <glyph glyph-name="period" unicode="." horiz-adv-x="764" 
d="M119 240q0 64 33.5 125t94.5 99t136 38q65 0 125.5 -32.5t98.5 -93t38 -136.5q0 -70 -33.5 -130.5t-93.5 -96.5t-135 -36q-76 0 -136.5 36.5t-94 98t-33.5 128.5z" />
    <glyph glyph-name="slash" unicode="/" horiz-adv-x="1321" 
d="M381 -430l-262 141l823 1802l260 -143z" />
    <glyph glyph-name="zero" unicode="0" 
d="M637 1468q104 0 194.5 -33t159.5 -91t119 -136q63 -98 96 -231t33 -260q0 -179 -37 -303t-84 -197q-35 -57 -95 -113t-158 -97.5t-228 -41.5q-187 0 -303.5 78t-177.5 174q-56 89 -88.5 227.5t-32.5 272.5q0 85 23.5 223t105.5 268q50 78 119 136t159.5 91t194.5 33z
M637 250q63 0 94 79.5t31 286.5v148q0 190 -16.5 282.5t-41.5 115t-67 22.5t-67 -22t-41.5 -115t-16.5 -283v-148q0 -206 31 -286t94 -80z" />
    <glyph glyph-name="one" unicode="1" 
d="M324 0v264h67q46 0 59 17.5t13 64.5v522h-162v250q222 106 301 316h289v-1088q0 -44 12.5 -63t61.5 -19h57v-264h-698z" />
    <glyph glyph-name="two" unicode="2" 
d="M51 0v297q215 122 363 248.5t218 244.5t70 226q0 166 -106 166q-61 0 -92 -50.5t-39 -209.5h-408q7 149 64 272t187 198.5t341 75.5q161 0 282 -57.5t185 -155.5t64 -213q0 -98 -42.5 -202.5t-124.5 -204t-204.5 -186.5t-271.5 -146l-2 -14h276q60 0 79 21.5t56 101.5
h264l-57 -412h-1102z" />
    <glyph glyph-name="three" unicode="3" 
d="M563 610h-102v287h125q151 0 151 150q0 135 -116 135q-76 0 -105 -49t-29 -127h-401q6 69 28 140.5t81.5 145.5t176.5 125t292 51q146 0 246.5 -35.5t155.5 -90.5t79 -120.5t24 -127.5q0 -125 -71.5 -209t-184.5 -107v-10q79 -15 145 -57.5t107 -121.5t41 -200
q0 -133 -54.5 -218t-139 -129.5t-174 -60.5t-172.5 -16q-343 0 -470.5 160t-127.5 348h391q2 -70 13 -115.5t43 -74.5t91 -29q69 0 97.5 43t31.5 121v41q-7 88 -57.5 119.5t-114.5 31.5z" />
    <glyph glyph-name="four" unicode="4" 
d="M1221 0h-703v264h62q34 0 54.5 11t20.5 53v39h-669v280l786 787h311v-805h148v-262h-148v-39q0 -42 20.5 -53t55.5 -11h62v-264zM655 928l-290 -299h290v299z" />
    <glyph glyph-name="five" unicode="5" 
d="M61 455h394q0 -115 43 -158t98 -43q73 0 106 61.5t33 139.5v51q0 77 -40 117t-104.5 53.5t-166.5 13.5q-136 0 -260 -18l49 762h854v-275q-34 -24 -110.5 -50t-188.5 -26q-91 0 -211 27l-14 -168q74 8 131 8q168 0 278 -48.5t165 -120t75 -148t20 -144.5
q0 -89 -29 -179.5t-94 -168.5t-175.5 -127t-264.5 -49q-164 0 -280 40.5t-182 109t-94.5 153.5t-31.5 187z" />
    <glyph glyph-name="six" unicode="6" 
d="M508 895v-45q98 57 254 57q111 0 195.5 -37t139 -100.5t81 -142.5t26.5 -170q0 -97 -36 -187t-106.5 -158.5t-172 -107.5t-225.5 -39q-200 0 -333.5 87t-197 243.5t-63.5 363.5q0 510 193.5 659.5t395.5 149.5q179 0 324.5 -85.5t198.5 -354.5h-398q0 36 -15 73t-44.5 59
t-71.5 22q-59 0 -90.5 -39t-43 -100t-11.5 -148zM664 254q73 0 92.5 51t19.5 152q0 93 -21.5 137.5t-90.5 44.5q-79 0 -107.5 -45t-28.5 -137q0 -65 10 -108.5t40 -69t86 -25.5z" />
    <glyph glyph-name="seven" unicode="7" 
d="M1169 1434v-275q-129 -190 -204 -332.5t-113 -253.5t-51 -185t-29 -206q-8 -73 -8 -182h-481q4 101 32.5 214.5t69.5 220.5t84 196q49 96 94.5 174t108 167.5t137.5 172.5h-270q-72 0 -103.5 -32.5t-42.5 -133.5h-243v455h1019z" />
    <glyph glyph-name="eight" unicode="8" 
d="M637 1468q219 0 341 -68t163 -156.5t41 -168.5q0 -102 -65.5 -188.5t-192.5 -122.5v-8q66 -14 123 -51.5t94.5 -89t57.5 -114t20 -128.5q0 -93 -48 -185.5t-178 -157.5t-356 -65q-225 0 -356 65t-178.5 157.5t-47.5 185.5q0 66 20 128.5t58 114.5t94 89t123 51v8
q-125 35 -191.5 123t-66.5 188q0 80 41 168.5t163 156.5t341 68zM637 608q-125 0 -125 -180q0 -60 11.5 -98.5t39 -58t74.5 -19.5q74 0 98.5 47t24.5 129q0 180 -123 180zM637 897q117 0 117 152q0 98 -40 125.5t-77 27.5q-119 0 -119 -153q0 -152 119 -152z" />
    <glyph glyph-name="nine" unicode="9" 
d="M764 539v45q-92 -58 -252 -58q-99 0 -181 32t-141 92t-89.5 141t-30.5 180q0 155 73.5 268t196.5 171t268 58q119 0 222.5 -32t188 -111t134 -215t49.5 -336q0 -278 -70 -447.5t-170 -245.5t-188.5 -96t-159.5 -20q-164 0 -280 61t-173.5 162t-60.5 220h387
q0 -60 34 -107t97 -47q94 0 120 78.5t26 206.5zM618 1182q-76 0 -100 -56t-24 -149q0 -86 24.5 -134t99.5 -48q78 0 100.5 48t22.5 113v21v27q0 178 -123 178z" />
    <glyph glyph-name="colon" unicode=":" horiz-adv-x="764" 
d="M119 240q0 64 33.5 125t94.5 99t136 38q65 0 125.5 -32.5t98.5 -93t38 -136.5q0 -70 -33.5 -130.5t-93.5 -96.5t-135 -36q-76 0 -136.5 36.5t-94 98t-33.5 128.5zM119 846q0 66 34 126.5t94 98t136 37.5q64 0 124.5 -31.5t99 -92t38.5 -138.5q0 -113 -81 -187.5
t-181 -74.5q-115 0 -189.5 80.5t-74.5 181.5z" />
    <glyph glyph-name="semicolon" unicode=";" horiz-adv-x="778" 
d="M119 846q0 66 34 126.5t94 98t136 37.5q64 0 124.5 -31.5t99 -92t38.5 -138.5q0 -113 -81 -187.5t-181 -74.5q-115 0 -189.5 80.5t-74.5 181.5zM360 -31v8q-103 13 -165 86.5t-62 169.5q0 69 35 125.5t92 86.5t123 30q78 0 141 -38.5t99 -114t36 -179.5
q0 -158 -87.5 -305t-235.5 -297l-170 125q99 135 124 173t70 130z" />
    <glyph glyph-name="less" unicode="&#x3c;" horiz-adv-x="1491" 
d="M1372 1096l-698 -404v-12l698 -401l-133 -238l-1120 645l1120 649z" />
    <glyph glyph-name="equal" unicode="=" horiz-adv-x="1325" 
d="M119 762v260h1087v-260h-1087zM119 616h1087v-262h-1087v262z" />
    <glyph glyph-name="greater" unicode="&#x3e;" horiz-adv-x="1575" 
d="M203 1096l131 239l1122 -649l-1122 -645l-131 238l698 401v12z" />
    <glyph glyph-name="question" unicode="?" horiz-adv-x="1294" 
d="M465 936h-346q0 131 44.5 250t163.5 200.5t324 81.5q167 0 285.5 -54.5t179 -148.5t60.5 -210q0 -109 -33 -182.5t-76 -114.5q-41 -40 -77.5 -57t-95.5 -38.5t-85.5 -46t-38.5 -75.5h-311q-4 44 -4 61q0 64 17 110t41.5 75.5t68 68t65.5 62.5q76 83 76 149q0 63 -34 95
t-89 32q-59 0 -87.5 -35.5t-36 -87t-11.5 -135.5zM410 215q0 58 30 114t84.5 91t122.5 35q59 0 115.5 -30.5t90.5 -85.5t34 -124q0 -95 -66.5 -166.5t-173.5 -71.5q-69 0 -123 34t-84 88.5t-30 115.5z" />
    <glyph glyph-name="at" unicode="@" horiz-adv-x="2111" 
d="M1610 1106l-144 -477q-28 -91 -28 -162q0 -109 123 -109q64 0 114.5 34t85 93t51.5 131.5t17 145.5q0 194 -96 355.5t-269.5 256t-398.5 94.5q-154 0 -294 -52t-247 -151.5t-169 -245.5t-62 -327q0 -200 68.5 -350t178.5 -243.5t240 -138t258 -44.5q90 0 205 35t258 127
l92 -131q-101 -80 -195.5 -122.5t-181.5 -59.5t-161 -17q-201 0 -373.5 70.5t-300.5 200t-195 296t-67 357.5q0 175 61 345t180 305t298 215.5t407 80.5q208 0 381 -67t295 -185.5t187 -275t65 -332.5q0 -134 -49 -261.5t-158 -211.5t-275 -84q-198 0 -280 153h-14
q-85 -84 -169.5 -117.5t-166.5 -33.5q-98 0 -185 45t-140.5 132.5t-53.5 209.5q0 113 36 218t103.5 188t162.5 131.5t212 48.5q193 0 291 -154h18l33 84h252zM1159 475l109 402q-12 58 -54 93.5t-98 35.5q-77 0 -156 -54.5t-129.5 -154t-50.5 -226.5q0 -98 46.5 -160.5
t129.5 -62.5q122 0 203 127z" />
    <glyph glyph-name="A" unicode="A" horiz-adv-x="1544" 
d="M1098 1434l288 -1049q22 -72 38.5 -96.5t66.5 -24.5h31v-264h-684v264h49q55 0 55 33q0 13 -8 41q-1 6 -3 14t-3 13h-424q-12 -30 -12 -50q0 -23 9 -34t21.5 -14t28.5 -3h20v-264h-548v264h32q38 0 60 14t39 50.5t39 109.5l198 635q17 49 17 68q0 15 -13.5 21.5
t-72.5 6.5h-35v265h811zM719 1063l-125 -410h250l-115 410h-10z" />
    <glyph glyph-name="B" unicode="B" horiz-adv-x="1411" 
d="M72 1434h583q231 0 365 -17.5t223.5 -97t89.5 -248.5q0 -83 -37.5 -154.5t-104.5 -114t-151 -42.5h-24v-19h39q77 0 151.5 -39.5t122 -118.5t47.5 -194q0 -139 -55 -219t-156.5 -116t-235.5 -45t-345 -9h-512v264h78q37 0 54 13t17 67v746q0 53 -17 66t-54 13h-78v265z
M649 866h39q89 0 142 23t53 108q0 96 -52 122t-126 26h-56v-279zM649 289h41q102 0 155.5 31t53.5 122q0 88 -54 112t-134 24h-62v-289z" />
    <glyph glyph-name="C" unicode="C" horiz-adv-x="1407" 
d="M1350 885h-486q-7 156 -37.5 226.5t-132.5 70.5q-61 0 -97 -27t-54.5 -75t-24.5 -107t-6 -139v-111q1 -22 2 -47t2 -101q1 -140 23 -212.5t58.5 -91.5t100.5 -19q29 0 59 8.5t60 39t50 98t20 180.5h485q-4 -173 -88 -313.5t-236 -220t-348 -79.5q-150 0 -299 59.5
t-257.5 226.5t-108.5 466q0 212 79.5 383t229 269.5t348.5 98.5q156 0 279 -47.5t206 -129t127 -186t46 -220.5z" />
    <glyph glyph-name="D" unicode="D" horiz-adv-x="1518" 
d="M96 1434h707q236 0 386.5 -82t222 -241t71.5 -392q0 -167 -42.5 -304.5t-140.5 -244.5q-55 -59 -120 -93t-143.5 -51t-171.5 -21.5t-218 -4.5h-551v264h78q38 0 55 13t17 67v746q0 53 -17 66t-55 13h-78v265zM674 1028v-661q0 -43 15 -60.5t59 -17.5h90q105 0 136.5 84.5
t31.5 238.5v105v45q0 173 -13 247.5t-64 105t-173 30.5q-51 0 -65.5 -19t-14.5 -53v-18q-2 -11 -2 -27z" />
    <glyph glyph-name="E" unicode="E" horiz-adv-x="1294" 
d="M72 0v264h78q37 0 54 13t17 67v746q0 53 -17 66t-54 13h-78v265h1130l-2 -437h-260q-5 45 -16 88q-12 41 -34 50.5t-77 9.5h-164v-273h279v-288h-279v-295h156q70 0 96.5 18t38.5 58q14 51 18 79h265v-444h-1151z" />
    <glyph glyph-name="F" unicode="F" horiz-adv-x="1184" 
d="M72 1434h1112l-2 -437h-224q0 40 -12 88q-11 41 -33 50.5t-77 9.5h-187v-285h291v-289h-291v-227q0 -36 9.5 -54t24 -22t40.5 -4h76v-264h-727v264h78q37 0 54 13t17 67v746q0 53 -17 66t-54 13h-78v265z" />
    <glyph glyph-name="G" unicode="G" horiz-adv-x="1561" 
d="M1401 0h-262l-23 111h-16q-50 -56 -137.5 -101t-227.5 -45q-146 0 -295 60t-258.5 228.5t-109.5 463.5q0 211 78.5 383t227.5 270t349 98q193 0 341 -76t229.5 -208.5t86.5 -294.5h-487q-2 95 -14.5 156.5t-49 99t-104.5 37.5q-84 0 -122.5 -49t-48 -125t-9.5 -213v-148
q0 -114 4 -176.5t21 -113.5t55 -78t104 -27q45 0 93.5 17.5t78 45.5t29.5 58v45q0 45 -84 45h-37v262h676v-262q-54 0 -68.5 -22t-19.5 -85v-356z" />
    <glyph glyph-name="H" unicode="H" horiz-adv-x="1597" 
d="M72 0v264h78q37 0 54 13t17 67v746q0 53 -17 66t-54 13h-78v265h657v-265h-10q-43 0 -56.5 -16t-13.5 -66v-186h297v186q0 45 -11.5 63.5t-60.5 18.5h-10v265h662v-265h-78q-36 0 -55 -13.5t-19 -65.5v-746q0 -53 19 -66.5t55 -13.5h78v-264h-662v264h10q38 0 55 13
t17 67v270h-297v-270q0 -37 7.5 -54.5t22 -21.5t44.5 -4h8v-264h-659z" />
    <glyph glyph-name="I" unicode="I" horiz-adv-x="870" 
d="M72 0v264h78q37 0 54 13t17 67v746q0 53 -17 66t-54 13h-78v265h727v-265h-76q-39 0 -56.5 -13t-17.5 -66v-746q0 -36 9.5 -54t24 -22t40.5 -4h76v-264h-727z" />
    <glyph glyph-name="J" unicode="J" horiz-adv-x="815" 
d="M743 1434v-265h-59q-47 0 -58.5 -18.5t-11.5 -63.5v-600q0 -229 -62.5 -344.5t-148.5 -146.5t-190 -31q-57 0 -106 10t-107 41v293q51 -57 113 -57q73 0 73 96v742q0 53 -17 66t-56 13h-78v265h708z" />
    <glyph glyph-name="K" unicode="K" horiz-adv-x="1548" 
d="M844 1434h629v-265h-62q-33 0 -85.5 -19.5t-76.5 -43.5l-157 -156l256 -493q39 -74 74 -115.5t65.5 -58t60.5 -19.5v-264h-704v264q40 0 59 13.5t19 35.5q0 16 -37 84l-99 191h-20l-117 -133v-107q0 -37 13 -60.5t55 -23.5h14v-264h-659v264h78q37 0 54 13t17 67v746
q0 53 -17 66t-54 13h-78v265h678v-265h-27q-43 0 -58.5 -15t-15.5 -52l2 -234h8l197 222q2 2 14 18q3 3 6 5.5t7 6.5q22 24 22 37q0 10 -12 10q-16 2 -31 2h-18v265z" />
    <glyph glyph-name="L" unicode="L" horiz-adv-x="1251" 
d="M96 0v264h78q38 0 55 13t17 67v746q0 53 -17 66t-55 13h-78v265h715v-265h-72q-34 0 -49.5 -14.5t-15.5 -64.5v-801h170q57 0 85 9t46 49.5t22 131.5h254v-479h-1155z" />
    <glyph glyph-name="M" unicode="M" horiz-adv-x="1802" 
d="M1061 0v264h39q37 0 54 13t17 67l3 498h-23l-250 -619h-182l-264 608h-13v-487q0 -41 13.5 -60.5t56.5 -19.5h39v-264h-479v264h59q40 0 56 14t16 66v743q0 45 -11.5 63.5t-60.5 18.5h-59v265h561l241 -562h31l228 562h598v-265h-58q-50 0 -62 -18.5t-12 -63.5v-743
q0 -36 9.5 -54t24 -22t40.5 -4h58v-264h-670z" />
    <glyph glyph-name="N" unicode="N" horiz-adv-x="1565" 
d="M606 1434l461 -781h12v434q0 49 -13.5 65.5t-57.5 16.5h-56v265h516v-265h-55q-44 0 -58 -16t-14 -66v-1087h-389l-454 768h-13v-424q0 -37 7.5 -54.5t21 -21.5t41.5 -4h57v-264h-516v264h56q40 0 54.5 12.5t14.5 67.5v743q0 52 -11.5 67t-57.5 15h-56v265h510z" />
    <glyph glyph-name="O" unicode="O" horiz-adv-x="1470" 
d="M735 1468q188 0 316 -74.5t206 -185.5q46 -63 76 -135t43.5 -137t18 -115.5t4.5 -103.5q0 -67 -7.5 -134.5t-22.5 -129.5t-41.5 -125t-61.5 -111q-179 -252 -531 -252q-194 0 -325 72.5t-207 179.5q-65 92 -98 219.5t-33 280.5q3 92 10 155t38 155t93 181q42 59 103 115
t169 100.5t250 44.5zM735 1182q-61 0 -98.5 -32t-57 -89.5t-25 -122t-5.5 -154.5v-137q0 -111 10.5 -194.5t52 -142t123.5 -58.5q120 0 153.5 107.5t33.5 287.5v137q0 177 -33.5 287.5t-153.5 110.5z" />
    <glyph glyph-name="P" unicode="P" horiz-adv-x="1358" 
d="M649 514v-170q0 -36 9.5 -54t24 -22t40.5 -4h76v-264h-727v264h78q37 0 54 13t17 67v746q0 53 -17 66t-54 13h-78v265h546q228 0 384.5 -38.5t244.5 -145.5t88 -300q0 -243 -153 -340.5t-439 -97.5q-61 0 -94 2zM649 1145v-342q110 0 166.5 39t56.5 135q0 60 -24 97.5
t-73 54t-126 16.5z" />
    <glyph glyph-name="Q" unicode="Q" horiz-adv-x="1395" 
d="M698 1468q61 0 121 -8.5t132.5 -36t143.5 -81t126 -134.5q89 -130 112.5 -250t26.5 -241v-123q-6 -78 -38 -181t-103.5 -204.5t-202 -172.5t-320.5 -71v-6q28 -4 46 -13t44.5 -26t51.5 -31q113 -65 174 -65q24 0 48 15.5t42 41.5l149 -106q-63 -137 -133.5 -199.5
t-142.5 -62.5q-28 0 -84.5 20t-89.5 43q-8 7 -12 9.5t-9 6.5t-16 11.5t-25 13.5q-11 5 -16.5 9t-15.5 9q-67 43 -154 43q-47 0 -68 -38l-141 102q58 122 122.5 168.5t117.5 54.5v6q-268 41 -416 246q-26 37 -54 96t-53.5 166.5t-25.5 237.5q0 292 141 491q48 69 118.5 127
t172 95.5t231.5 37.5zM698 1182q-82 0 -123.5 -60t-52 -144t-10.5 -194v-137q0 -178 27.5 -265.5t65 -107.5t93.5 -20q42 0 70 8.5t56 45t44.5 120t16.5 219.5v137q0 189 -35.5 293.5t-151.5 104.5z" />
    <glyph glyph-name="R" unicode="R" horiz-adv-x="1438" 
d="M72 1434h714q319 0 421 -130t102 -292q0 -99 -49.5 -183.5t-143.5 -132.5l119 -209l50 -93.5t66 -89t87 -40.5v-264h-664v264q40 2 58 12.5t18 38.5q0 31 -35 93l-80 153h-114v-217q0 -35 12 -57.5t55 -22.5v-264h-616v264h57q29 0 44.5 6.5t21.5 30.5t6 76v680
q0 69 -11 91.5t-61 22.5h-57v263zM621 1145v-295h45q79 0 122 41.5t43 120.5q0 88 -50 110.5t-124 22.5h-36z" />
    <glyph glyph-name="S" unicode="S" horiz-adv-x="1307" 
d="M35 406h459q0 -72 32.5 -112t114.5 -40q143 0 143 111q0 47 -35 72.5t-87 45.5q-237 96 -345 150.5t-175.5 143.5t-67.5 233q0 277 181 367.5t404 90.5q114 0 213 -13t190.5 -58.5t148.5 -140.5t57 -246h-455v49q0 52 -24 87.5t-107 35.5q-121 0 -121 -119
q0 -37 13 -60.5t47 -42t102 -38.5q129 -37 223.5 -73.5t168 -88t115.5 -129.5t42 -185q0 -297 -208 -389t-423 -92q-147 0 -276.5 26.5t-229.5 124t-100 290.5z" />
    <glyph glyph-name="T" unicode="T" horiz-adv-x="1335" 
d="M35 1434h1265v-482h-239q-7 36 -11 59t-12 64q-6 42 -24.5 56t-85.5 14h-45v-803q0 -54 17 -67t54 -13h78v-264h-729v264h78q39 0 56.5 13t17.5 67v803h-45q-55 0 -76.5 -10t-32.5 -48t-25 -135h-241v482z" />
    <glyph glyph-name="U" unicode="U" horiz-adv-x="1511" 
d="M758 1434v-265h-58q-41 0 -57 -17t-16 -65l2 -452q0 -132 10 -207.5t55.5 -125.5t143.5 -50q82 0 122.5 46.5t52 124.5t11.5 212v452q0 48 -12 65t-60 17h-57v265h545v-265h-58q-46 0 -57.5 -16.5t-13.5 -52.5q0 -23 -0.5 -29.5t-1.5 -15.5v-574q0 -157 -49.5 -262.5
t-125.5 -159.5t-155 -74t-148 -20q-217 0 -349.5 63t-191.5 162t-74 205t-15 240v452q0 45 -12.5 63.5t-57.5 18.5h-59v265h686z" />
    <glyph glyph-name="V" unicode="V" horiz-adv-x="1378" 
d="M569 0l-401 1022q-3 8 -16 45t-26.5 58t-37 32.5t-61.5 11.5h-27v265h690v-265h-57q-15 0 -23 -8t-8 -18q0 -5 23 -64l143 -364h25l114 348q25 70 25 84q0 15 -9.5 18.5t-39.5 3.5h-35v265h530v-265h-53q-31 0 -50 -10t-38 -43t-45 -112l-336 -1004h-287z" />
    <glyph glyph-name="W" unicode="W" horiz-adv-x="2146" 
d="M729 1434v-265h-80q-26 0 -26 -24q0 -11 12 -39q8 -20 10 -26.5t2.5 -10.5t11.5 -35l113 -280h23l229 680h233l265 -666h18l88 268l23 65t8 40t-11.5 22.5t-66.5 5.5h-49v265h614v-265h-35q-42 0 -64.5 -14t-39.5 -53t-53 -144l-324 -958h-293l-241 614h-15l-217 -614
h-295l-370 975l-33 78q-21 49 -37.5 72.5t-41 33.5t-67.5 10h-18l-2 265h729z" />
    <glyph glyph-name="X" unicode="X" horiz-adv-x="1548" 
d="M741 1434v-265h-24q-12 0 -22.5 -6.5t-10.5 -23.5q0 -14 18 -39l82 -125h15l86 129q24 40 24 47q0 18 -22 18h-27v265h555v-265h-55q-46 0 -75 -31t-89 -118l-149 -225l256 -394l43.5 -67.5t43 -47t56.5 -22.5h55v-264h-721v264q51 0 51 33q0 7 -8.5 25.5t-17.5 31.5
l-82 125h-12l-95 -141q-18 -18 -18 -47q0 -27 47 -27v-264h-596v264h55q46 0 76 16t50 42t61 88l174 264l-242 370q-57 90 -77.5 107.5t-59.5 17.5h-39v265h694z" />
    <glyph glyph-name="Y" unicode="Y" horiz-adv-x="1321" 
d="M1038 0h-702v264h70q29 0 48 11t19 47v110l-309 590q-53 101 -79 124t-73 23h-12v265h682v-265h-23q-36 0 -47.5 -4t-11.5 -18q0 -21 33 -86l115 -221h10l82 192q41 108 41 117q0 20 -43 20h-43v265h526v-265h-43q-29 0 -49 -13.5t-33.5 -35.5t-25.5 -51l-27 -65
l-242 -564v-118q0 -36 14.5 -47t45.5 -11h77v-264z" />
    <glyph glyph-name="Z" unicode="Z" horiz-adv-x="1331" 
d="M1223 1434v-349l-670 -796h311q48 0 70.5 7t35 31.5t21.5 84.5l19 114h250v-526h-1188v330l690 815h-273q-47 0 -69.5 -7t-31.5 -19.5t-13.5 -39.5l-9.5 -57l-21 -115h-250v527h1129z" />
    <glyph glyph-name="bracketleft" unicode="[" horiz-adv-x="895" 
d="M96 -506v1974h559v-208h-116q-49 0 -61.5 -20.5t-12.5 -63.5v-1389q0 -42 13 -62t61 -20h116v-211h-559z" />
    <glyph glyph-name="backslash" unicode="\" horiz-adv-x="1321" 
d="M942 -430l-823 1800l262 143l821 -1802z" />
    <glyph glyph-name="bracketright" unicode="]" horiz-adv-x="895" 
d="M799 -506h-559v211h116q42 0 58 15.5t16 66.5v1389q0 48 -14.5 66t-59.5 18h-116v208h559v-1974z" />
    <glyph glyph-name="asciicircum" unicode="^" horiz-adv-x="1266" 
d="M627 1468l520 -516h-305l-215 211l-205 -209h-303z" />
    <glyph glyph-name="underscore" unicode="_" horiz-adv-x="1268" 
d="M0 -168h1268v-262h-1268v262z" />
    <glyph glyph-name="grave" unicode="`" horiz-adv-x="614" 
d="M414 1640l32 -362l-143 -2l-280 364h391z" />
    <glyph glyph-name="a" unicode="a" horiz-adv-x="1210" 
d="M1149 258v-258q-82 -23 -172 -23q-201 0 -223 117l-19 -2q-71 -63 -145 -89t-166 -26q-182 0 -267 98t-85 234q0 204 151 279.5t424 75.5h53v108q0 34 -24.5 66t-106.5 32q-59 0 -93 -30t-34 -80h-323q0 348 530 348q146 0 233.5 -36t127 -95t49.5 -122.5t10 -160.5v-362
q0 -40 16.5 -57t63.5 -17zM700 276v201q-104 0 -158.5 -44.5t-54.5 -108.5q0 -44 27 -76.5t82 -32.5q41 0 72.5 17t31.5 44z" />
    <glyph glyph-name="b" unicode="b" horiz-adv-x="1307" 
d="M96 0v215h39q37 0 50.5 15.5t13.5 50.5v1079q0 40 -15.5 51.5t-48.5 11.5h-39v215h471v-598h15q56 40 110 54t117 14q154 0 256 -80t148.5 -209t46.5 -272q0 -95 -23 -191t-75.5 -182.5t-142 -141.5t-214.5 -55q-72 0 -138 21.5t-122 93.5h-10l-35 -92h-404zM567 768
v-510q51 -41 138 -41q72 0 96.5 48.5t27.5 189.5v49q-4 114 -4 141q0 94 -22.5 159.5t-104.5 65.5q-45 0 -82.5 -24.5t-48.5 -77.5z" />
    <glyph glyph-name="c" unicode="c" horiz-adv-x="1169" 
d="M725 434h397q0 -94 -34 -176.5t-102.5 -147t-165 -99t-218.5 -34.5q-129 0 -251 50t-191 141q-113 149 -113 375q0 99 32.5 199t88.5 171q152 195 432 195q202 0 315 -82.5t153 -181t48 -176.5h-393q0 92 -32 147t-89 55q-78 0 -102.5 -70t-24.5 -204v-104
q0 -166 32 -220.5t95 -54.5q41 0 82 40t41 177z" />
    <glyph glyph-name="d" unicode="d" horiz-adv-x="1335" 
d="M592 1638h512v-1357q0 -42 14.5 -54t50.5 -12h70v-215h-494l-14 86h-10q-100 -109 -270 -109q-143 0 -273.5 119.5t-130.5 446.5q0 152 60 282t174.5 206.5t263.5 76.5q99 0 176 -47h14v299q0 39 -15.5 51t-47.5 12h-80v215zM735 276v519q-13 50 -53 68t-78 18
q-79 0 -101 -51.5t-26 -149.5q0 -42 -0.5 -63.5t-1.5 -47.5v-55q1 -14 1.5 -25.5t0.5 -56.5q2 -69 10 -113t37.5 -74t89.5 -30q28 0 64 17.5t57 43.5z" />
    <glyph glyph-name="e" unicode="e" horiz-adv-x="1159" 
d="M750 334h348q-40 -142 -161 -249.5t-347 -107.5q-92 0 -216 36.5t-214 152.5q-113 148 -113 369q0 103 32.5 202.5t88.5 171.5q84 109 198.5 154t235.5 45q155 0 269.5 -77t175 -222t65.5 -344h-643v-51q0 -73 13 -115t44.5 -62t87.5 -20q116 0 136 117zM469 680h281
q0 98 -38.5 144t-97.5 46q-61 0 -103 -49t-42 -141z" />
    <glyph glyph-name="f" unicode="f" horiz-adv-x="922" 
d="M117 0v215h35q37 0 52 12.5t15 53.5v569h-123v237h123v164q0 88 28.5 173t128 151.5t288.5 66.5q130 0 245 -69v-301h-213q-1 10 -1.5 17.5t-2.5 23.5q-2 47 -10 69.5t-41 22.5t-43 -28t-10 -79v-65v-146h157v-237h-157v-569q0 -22 5.5 -36.5t23.5 -22t51 -7.5h43v-215
h-594z" />
    <glyph glyph-name="g" unicode="g" horiz-adv-x="1384" 
d="M1061 -430h-281q13 25 23 62.5t10 66.5q0 28 -15 39t-48 16h-95q-133 -10 -161 -10q-167 0 -257.5 59.5t-118.5 138.5t-28 164q0 69 47.5 127.5t116.5 92.5v8q-64 48 -103 94.5t-59 106t-20 131.5q0 126 63 226.5t183 158t284 57.5q93 0 177 -27.5t163 -101.5
q41 45 97 69.5t120 24.5q90 0 178 -49v-274h-174q-18 108 -73 108q-22 0 -46 -14q41 -72 41 -185q0 -76 -27.5 -149.5t-83.5 -135t-149 -99t-215 -37.5q-44 0 -88 6t-78 16q-38 -6 -53.5 -24.5t-15.5 -42.5q0 -70 55 -87.5t188 -17.5q27 0 67 2t60 2q121 0 189.5 -6.5
t120 -29.5t80 -75.5t28.5 -142.5q0 -112 -102 -268zM578 913q-49 0 -79 -22.5t-41.5 -67.5t-11.5 -116v-78q0 -90 21 -144t84 -61h27q43 2 68.5 12.5t45 54.5t19.5 142v72q0 102 -27 155t-106 53z" />
    <glyph glyph-name="h" unicode="h" horiz-adv-x="1350" 
d="M567 1638v-610h11q156 80 296 80q119 0 186.5 -39t91.5 -101t24 -143v-555q0 -35 18 -45t45 -10h39v-215h-539v215q45 0 56.5 18.5t11.5 47.5v446q0 68 -24 105.5t-101 37.5q-50 0 -81.5 -29.5t-31.5 -74.5v-10v-21q-2 -6 -2 -18v-436q0 -43 15 -54.5t49 -11.5h8v-215
h-543v215h37q34 0 50 12t16 54v1079q0 40 -16 51.5t-50 11.5h-37v215h471z" />
    <glyph glyph-name="i" unicode="i" horiz-adv-x="762" 
d="M104 0v215h27q26 0 40.5 8t19 22t4.5 36v524q0 33 -11.5 49t-52.5 16h-35v215h570v-215h-37q-41 0 -53.5 -15t-12.5 -50v-524q0 -18 4 -32t10 -20t19.5 -10t32.5 -4h37v-215h-562zM178 1440q0 78 58 140t145 62q90 0 146.5 -61.5t56.5 -140.5q0 -60 -29.5 -106.5
t-76 -72.5t-97.5 -26q-56 0 -103 30t-73.5 77t-26.5 98z" />
    <glyph glyph-name="j" unicode="j" horiz-adv-x="786" 
d="M625 1085v-1136q0 -126 -33 -212.5t-88.5 -135t-127.5 -69.5t-149 -21q-94 0 -192 24l41 279q30 -25 74 -31h34q43 7 57.5 42t14.5 97v883q0 40 -17.5 52.5t-52.5 12.5h-73v215h512zM201 1436q0 79 58.5 140.5t146.5 61.5q79 0 140.5 -56t61.5 -146q0 -79 -57 -141
t-145 -62q-60 0 -106.5 30t-72.5 76.5t-26 96.5z" />
    <glyph glyph-name="k" unicode="k" horiz-adv-x="1395" 
d="M555 1638v-1013l186 186q5 5 19 16t18 16t4 11q0 16 -47 16h-14v215h536v-215h-63q-63 0 -116.5 -31.5t-114.5 -90.5l192 -400q24 -50 47.5 -77.5t55.5 -39t90 -16.5v-215h-627v215h22q44 0 50 21v10q-2 4 -3.5 6t-3.5 4q-2 4 -4.5 11t-7.5 18l-92 190l-127 -121v-73
q0 -43 14.5 -54.5t48.5 -11.5h9v-215h-543v215h39q32 0 47.5 12.5t15.5 53.5v1079q0 39 -15.5 51t-47.5 12h-39v215h471z" />
    <glyph glyph-name="l" unicode="l" horiz-adv-x="756" 
d="M567 1638v-1357q0 -42 16 -54t50 -12h26v-215h-563v215h39q33 0 48.5 12t15.5 54v1079q0 40 -16 51.5t-50 11.5h-37v215h471z" />
    <glyph glyph-name="m" unicode="m" horiz-adv-x="1954" 
d="M98 0v215h39q38 0 51 13.5t13 52.5v524q0 37 -13 51t-55 14h-37v215h473v-57q93 46 164 63t144 17q95 0 153.5 -21t104.5 -81l16 -2q39 30 94.5 53.5t116.5 37t117 13.5q130 0 198.5 -45.5t87.5 -106t19 -131.5v-544q0 -40 15.5 -53t49.5 -13h33v-215h-539v215h13
q31 0 45 15.5t14 50.5v421q0 10 -2 25t-2 37q-3 63 -41.5 84.5t-83.5 21.5q-101 0 -108 -127q0 -21 -0.5 -30.5t-1.5 -20.5v-411q0 -66 53 -66h16v-215h-506v215h17q33 0 42 18t9 48v421q0 168 -127 168q-111 0 -111 -135v-43v-411q0 -30 9.5 -48t44.5 -18h18v-215h-543z
" />
    <glyph glyph-name="n" unicode="n" horiz-adv-x="1362" 
d="M96 0v215h37q34 0 50 12t16 54v524q0 36 -12 50.5t-54 14.5h-37v215h471v-81h11q145 104 362 104q113 0 168.5 -50t67.5 -120.5t12 -185.5v-471q0 -35 14 -50.5t49 -15.5h39v-215h-538v215h14q33 0 43 17t10 49v454q0 50 -23 92.5t-89 42.5q-58 0 -99 -26t-41 -109v-454
q0 -32 11 -49t53 -17h8v-215h-543z" />
    <glyph glyph-name="o" unicode="o" horiz-adv-x="1204" 
d="M602 1108q124 0 236.5 -44t197.5 -151q38 -47 65.5 -109t41.5 -129.5t14 -131.5q0 -226 -113 -375q-66 -87 -187 -139t-255 -52q-132 0 -254 52t-188 139q-113 149 -113 375q0 98 33 199t88 171q65 81 173 138t261 57zM602 870q-80 0 -103.5 -75.5t-23.5 -200.5v-102
q0 -173 34.5 -225t92.5 -52q59 0 93 52t34 225v102q0 125 -23.5 200.5t-103.5 75.5z" />
    <glyph glyph-name="p" unicode="p" horiz-adv-x="1298" 
d="M567 41v-191q0 -40 16.5 -52.5t47.5 -12.5h80v-215h-615v215h35q32 0 50 11t18 54v955q0 40 -16.5 52.5t-51.5 12.5h-35v215h404l37 -100h8q89 72 137.5 97.5t130.5 25.5q167 0 265 -87.5t135.5 -212t37.5 -259.5q0 -69 -19 -160.5t-70.5 -186.5t-150.5 -160t-249 -65
q-63 0 -107.5 17t-87.5 47zM567 764v-473q43 -74 115 -74q128 0 135 176l3 41.5t2 22.5t1 26v105v67q0 109 -23 162t-104 53q-100 0 -129 -106z" />
    <glyph glyph-name="q" unicode="q" horiz-adv-x="1298" 
d="M1202 1085v-215h-35q-67 0 -67 -65v-955q0 -43 18 -54t49 -11h35v-215h-612v215h78q32 0 47.5 12t15.5 53v191q-87 -64 -194 -64q-177 0 -287.5 91.5t-156.5 223t-46 257.5q0 94 19.5 188t69.5 180t136.5 138.5t212.5 52.5q52 0 85.5 -8t57 -21t54 -36t72.5 -58h8l37 100
h403zM731 291v473q-10 53 -45 79.5t-84 26.5q-80 0 -103.5 -51.5t-23.5 -154.5v-76v-105q0 -30 6 -92q6 -174 135 -174q75 0 115 74z" />
    <glyph glyph-name="r" unicode="r" horiz-adv-x="1001" 
d="M96 0v215h37q34 0 50 12t16 54v524q0 36 -12 50.5t-54 14.5h-37v215h471v-81h11q81 61 138 82.5t118 21.5q40 0 70.5 -10t58.5 -37v-350h-215q-1 62 -13 97t-32.5 48.5t-51.5 13.5q-49 0 -65.5 -26.5t-16.5 -52.5q0 -14 -0.5 -21t-1.5 -16v-473q0 -32 11 -49t53 -17h47
v-215h-582z" />
    <glyph glyph-name="s" unicode="s" horiz-adv-x="1036" 
d="M47 301h352q4 -84 117 -84q119 0 119 57q0 40 -48.5 65.5t-123.5 49.5q-191 64 -290 143t-99 232q0 100 51.5 178.5t155 122t251.5 43.5q214 0 330.5 -65.5t124.5 -262.5l-348 -2q-4 15 -4 27q-4 42 -38 53.5t-65 11.5q-52 0 -76 -18t-24 -45q0 -29 18 -46t58 -31.5
t106.5 -31t73.5 -18.5q120 -32 210.5 -103.5t90.5 -222.5q0 -71 -32.5 -154t-144.5 -153t-329 -70q-166 0 -262.5 47t-134 119t-39.5 158z" />
    <glyph glyph-name="t" unicode="t" horiz-adv-x="891" 
d="M397 1561h213v-476h234v-239h-234v-539q0 -92 49 -92q35 0 101 76l96 -109q-47 -84 -130 -144.5t-208 -60.5q-113 0 -172.5 48.5t-81.5 145.5t-22 257v418h-195v239q100 6 173.5 55.5t120 155t56.5 265.5z" />
    <glyph glyph-name="u" unicode="u" horiz-adv-x="1350" 
d="M1253 0h-446l-25 94q-67 -58 -144.5 -87.5t-176.5 -29.5q-124 0 -188 51.5t-80.5 113.5t-16.5 120v37q-2 20 -2 59v455q0 35 -16 46t-47 11h-39v215h471v-712q0 -42 8 -72t35 -50t82 -20q47 0 71.5 18t31 39.5t9.5 49.5q1 14 1.5 24t0.5 21v422q0 44 -16 54.5t-47 10.5
h-27v215h459v-804q0 -43 14.5 -54.5t48.5 -11.5h39v-215z" />
    <glyph glyph-name="v" unicode="v" horiz-adv-x="1243" 
d="M662 1085v-215h-62q-23 0 -33 -4.5t-10 -19.5q0 -11 21 -66l118 -286h15l108 276q23 52 23 74q0 11 -6 18.5t-19 7.5h-61v215h487v-215h-67q-15 0 -27 -12t-20.5 -29.5t-19 -46l-17.5 -47.5l-289 -735h-316l-325 797q-14 36 -29.5 54.5t-52.5 18.5h-57v215h639z" />
    <glyph glyph-name="w" unicode="w" horiz-adv-x="1823" 
d="M23 1085h618v-215h-41h-33h-14h-8q-4 -2 -8.5 -6.5t-4.5 -7.5t27 -76l105 -276l233 581h176l252 -565l72 250q2 4 2 14q0 9 4 19q0 2 8 22q1 7 6 21v16q-6 8 -51 8h-37v215h494v-215h-45q-36 0 -58 -24.5t-47 -110.5l-209 -735h-327l-185 418l-170 -418h-319l-287 772
q-20 57 -39.5 77.5t-68.5 20.5h-45v215z" />
    <glyph glyph-name="x" unicode="x" horiz-adv-x="1212" 
d="M578 1085v-215h-25q-4 0 -9 -4t-5 -10q0 -4 6 -12t8 -13l76 -108h4l65 108q2 3 5 9t6.5 11.5t3.5 8.5q0 2 -0.5 3l-1.5 3q-4 4 -6 4h-33v215h465v-215q-63 -2 -90 -12t-54 -53l-141 -232l203 -264l28 -33l10 -12.5t5 -7.5q20 -28 33 -34.5t38 -6.5h21v-215h-578v215h35
q21 0 21 16q0 12 -2.5 17.5t-6.5 9t-6 6.5l-96 123l-76 -123q-4 -6 -5 -9.5t-7 -12.5q-1 -2 -3.5 -5.5t-2.5 -7.5q0 -14 24 -14h21v-215h-485v215h38q55 0 77 14t50 60l146 239l-191 271q-24 37 -44.5 54t-55.5 17h-18v215h553z" />
    <glyph glyph-name="y" unicode="y" horiz-adv-x="1214" 
d="M1214 1085v-215h-43q-27 0 -38.5 -9.5t-17 -24t-32.5 -95.5l-270 -782q-52 -153 -103.5 -252t-130.5 -156t-200 -57q-67 0 -135 37l2 313q43 -20 86 -20q117 0 131 174l-340 795q-22 51 -40.5 64t-59.5 13h-23v215h641v-215h-66q-40 0 -40 -24q0 -4 6 -27q10 -34 12 -39
l145 -336h21l112 353q11 26 11 47q0 10 -6 18t-17 8h-67v215h462z" />
    <glyph glyph-name="z" unicode="z" horiz-adv-x="1120" 
d="M111 1085h925v-258l-547 -587h218q47 0 62.5 5t22.5 23.5t15 65.5l14 78h215v-412h-952v246l541 600h-183q-38 0 -58 -6t-26 -16t-9 -28.5l-7 -43.5l-14 -78h-217v411z" />
    <glyph glyph-name="braceleft" unicode="{" horiz-adv-x="1034" 
d="M119 352v271q66 0 119.5 33t85.5 101t32 167q0 105 -4 156t-4 83q0 110 50.5 179t170.5 104t322 35v-215q-102 -9 -138 -54t-36 -110q0 -29 4 -100t4 -146q0 -66 -16 -131t-78.5 -130.5t-186.5 -100.5v-13q125 -36 187 -101t78 -130.5t16 -130.5q0 -75 -4 -146t-4 -100
q0 -42 13 -75t51 -57.5t110 -31.5v-215q-202 0 -322 35t-170.5 104t-50.5 179q0 33 4 84t4 155q0 148 -67.5 224.5t-169.5 76.5z" />
    <glyph glyph-name="bar" unicode="|" horiz-adv-x="467" 
d="M119 -573v2156h229v-2156h-229z" />
    <glyph glyph-name="braceright" unicode="}" horiz-adv-x="1034" 
d="M891 623v-271q-102 0 -170 -76.5t-68 -224.5q0 -104 4.5 -151t4.5 -88q0 -165 -122 -241.5t-421 -76.5v215q102 11 138 55.5t36 108.5q0 29 -4 100t-4 146q0 65 16 130.5t78 131t186 100.5v13q-123 35 -185.5 100.5t-78.5 130.5t-16 131q0 75 4 146t4 100q0 147 -174 164
v215q201 0 321 -35t171 -104t51 -179q0 -41 -4.5 -87.5t-4.5 -151.5q0 -148 69 -224.5t169 -76.5z" />
    <glyph glyph-name="asciitilde" unicode="~" horiz-adv-x="1434" 
d="M1126 915l189 -55q-52 -105 -144.5 -204t-224.5 -99q-59 0 -91.5 5.5t-69 19.5l-80.5 32q-142 54 -242 54q-51 0 -91 -27t-63 -74l-190 56q72 132 163.5 212t204.5 80q64 0 108 -10t87 -26l35.5 -12t82 -26t98.5 -25.5t67 -8.5q58 0 99 31.5t62 76.5z" />
    <glyph glyph-name="afii10051" horiz-adv-x="1708" 
d="M303 0v264h78q40 0 54.5 10.5t17.5 57.5q1 14 1.5 23.5t0.5 21.5v770h-47q-61 0 -85.5 -18t-29.5 -43t-19 -132h-239v480h1274v-416h-267q-14 71 -20 90.5t-27 29t-75 9.5h-37v-264q150 45 252 45q78 0 165 -15t173.5 -60.5t143 -134.5t56.5 -229q0 -102 -36.5 -197.5
t-108.5 -169t-178.5 -115.5t-241.5 -42h-66v287q78 0 115 51t37 127q0 100 -61 138t-148 38q-52 0 -102 -10l-2 -596h-578z" />
    <glyph glyph-name="afii10052" horiz-adv-x="1137" 
d="M1137 1434v-494h-250l-9.5 91t-14.5 65.5t-32.5 36.5t-68.5 12h-113v-801q0 -36 9.5 -54t24 -22t40.5 -4h76v-264h-727v264h78q37 0 54 13t17 67v746q0 53 -17 66t-54 13h-78v265h1065z" />
    <glyph glyph-name="quotesinglbase" unicode="&#x201a;" horiz-adv-x="764" 
d="M348 -31v8q-103 13 -166 87.5t-63 168.5q0 59 32 115.5t90 91.5t128 35q119 0 197.5 -84t78.5 -248q0 -125 -76 -280t-247 -322l-168 125q130 174 194 303z" />
    <glyph glyph-name="afii10100" unicode="&#x192;" horiz-adv-x="1026" 
d="M96 1085h871l12 -387h-217l-8 52q-10 59 -23 77.5t-84 18.5h-80v-565q0 -42 16 -54t50 -12h57v-215h-594v215h37q34 0 50 12t16 54v524q0 36 -12 50.5t-54 14.5h-37v215z" />
    <glyph glyph-name="quotedblbase" unicode="&#x201e;" horiz-adv-x="1434" 
d="M348 -31v8q-103 13 -166 87.5t-63 168.5q0 59 32 115.5t90 91.5t128 35q119 0 197.5 -84t78.5 -248q0 -125 -76 -280t-247 -322l-168 125q130 174 194 303zM1016 -31v8q-104 13 -166 86t-62 170q0 69 35 125.5t92 86.5t123 30q78 0 141 -38.5t99.5 -113.5t36.5 -180
t-40.5 -207t-113 -199t-170.5 -196l-170 125q97 131 130 181.5t65 121.5z" />
    <glyph glyph-name="ellipsis" unicode="&#x2026;" horiz-adv-x="2150" 
d="M96 240q0 103 72.5 182.5t189.5 79.5q78 0 137.5 -37.5t92.5 -97.5t33 -127q0 -70 -33 -130.5t-93.5 -96.5t-136.5 -36q-116 0 -189 78t-73 185zM813 240q0 67 32.5 127t92 97.5t137.5 37.5q118 0 190 -79t72 -183q0 -69 -32 -129.5t-91.5 -97t-138.5 -36.5
q-76 0 -136.5 36t-93 96.5t-32.5 130.5zM1530 240q0 114 79.5 188t182.5 74q67 0 127 -33t97.5 -92.5t37.5 -136.5q0 -107 -73 -185t-189 -78q-77 0 -137 36.5t-92.5 97t-32.5 129.5z" />
    <glyph glyph-name="dagger" unicode="&#x2020;" horiz-adv-x="1802" 
d="M686 -506v1172l-446 -13v312l448 -13l-12 555h450l-12 -555l449 13v-312l-451 13v-1172h-426z" />
    <glyph glyph-name="perthousand" unicode="&#x2030;" horiz-adv-x="2859" 
d="M635 -270l-199 118l867 1737l200 -119zM119 1073q0 85 27 176.5t108.5 158.5t226.5 67q135 0 216.5 -57t114 -146.5t32.5 -198.5q0 -222 -105.5 -311.5t-257.5 -89.5q-145 0 -226.5 66.5t-108.5 157.5t-27 177zM481 1284q-37 0 -53 -24.5t-16 -116.5v-142q0 -63 7.5 -94
t20.5 -38t39 -7q34 0 52 24.5t18 114.5v142q0 94 -17 117.5t-51 23.5zM1147 293q0 86 27 177t108.5 157.5t226.5 66.5q180 0 270.5 -106.5t90.5 -294.5q0 -123 -38.5 -212t-120 -138t-202.5 -49q-112 0 -185.5 40.5t-112 104.5t-51.5 130t-13 124zM1509 506
q-46 0 -58.5 -40.5t-12.5 -100.5v-144q0 -64 11.5 -101.5t57.5 -37.5q47 0 58.5 36.5t11.5 102.5v144q0 67 -12.5 104t-55.5 37zM2017 293q0 187 89.5 294t273.5 107q148 0 228 -66.5t106 -155.5t26 -179q0 -151 -74 -275t-286 -124q-183 0 -273 106.5t-90 292.5zM2380 506
q-47 0 -59.5 -41t-12.5 -100v-144q0 -65 11.5 -102t56.5 -37q46 0 57.5 36.5t11.5 102.5v144q0 141 -65 141z" />
    <glyph glyph-name="afii10058" unicode="&#x160;" horiz-adv-x="2103" 
d="M182 1434h1307v-265h-51q-63 0 -80 -17.5t-17 -64.5v-192q19 1 35 1.5t41 0.5q308 0 479.5 -105t171.5 -378q0 -160 -96 -252.5t-249 -127t-343 -34.5h-598v264h60q32 0 51.5 11t19.5 53v819h-233q-1 -94 -2.5 -210.5t-4.5 -200t-12 -195.5t-22 -183
q-24 -147 -105.5 -270t-267.5 -123q-95 0 -194 45v408q77 -21 110 -21q67 0 99.5 51.5t41 116.5t15.5 197q4 91 6 130.5t4 86.5v70q-1 55 -9.5 80.5t-26 32.5t-54.5 7h-76v265zM1341 606v-317q121 0 176.5 34.5t55.5 118.5q0 93 -53 128.5t-179 35.5z" />
    <glyph glyph-name="quilsinglleft" unicode="&#x2039;" horiz-adv-x="991" 
d="M119 627l407 585l275 -82l-293 -528l221 -553l-258 -49z" />
    <glyph glyph-name="afii10059" unicode="&#x152;" horiz-adv-x="2136" 
d="M944 901v186q0 52 -12 67t-60 15h-10v265h660v-265h-78q-37 0 -54.5 -13t-17.5 -66v-177q37 2 107 2q155 0 268.5 -25t192 -80.5t120 -148t41.5 -227.5q0 -151 -79 -243.5t-210 -135t-311 -55.5h-641v264h10q40 0 56.5 13t17.5 67v268h-295v-268q0 -37 7.5 -54.5
t22 -21.5t44.5 -4h8v-264h-659v264h78q37 0 54 13t17 67v746q0 53 -17 66t-54 13h-78v265h657v-265h-10q-43 0 -56.5 -16t-13.5 -66v-186h295zM1372 606v-321q146 0 189 40t43 115q0 82 -41.5 124t-190.5 42z" />
    <glyph glyph-name="afii10061" horiz-adv-x="1458" 
d="M647 602v-254q0 -54 20 -69t58 -15h33v-264h-686v264h75q38 0 55 13t17 67v746q0 53 -17 66t-55 13h-75v265h686v-265h-33q-34 0 -56 -14t-22 -72v-192h37q31 0 47.5 11.5t37 57.5t52.5 140q36 102 55 149t57 100.5t97.5 86t145.5 32.5q89 0 190 -30v-340q-10 4 -31 4
q-38 0 -62 -30.5t-54 -90.5q-35 -69 -60 -104.5t-70.5 -64t-123.5 -40.5v-27q64 0 118.5 -22t96.5 -74t59 -135l8 -36t14.5 -40.5t25.5 -29t42 -11.5t57 11v-408q-80 -35 -172 -35q-86 0 -150 30.5t-107.5 87.5t-75.5 133.5t-70 195.5q-33 110 -56 150t-69 40h-39z" />
    <glyph glyph-name="afii10060" horiz-adv-x="1675" 
d="M35 1434h1265v-416h-239q-17 35 -25 67q-8 34 -24.5 47t-83.5 13h-45v-285q110 49 185 63.5t169 16.5h51q250 -12 250 -281v-342q0 -35 18 -45t46 -10h38v-264h-598v264q38 0 54 12.5t16 51.5v143q0 8 -2 26t-2 27q-3 49 -39 69.5t-84 20.5q-32 0 -61 -15.5t-41 -45.5
v-553h-580v264h78q39 0 56.5 13t17.5 67v803h-45q-55 0 -76.5 -10t-32.5 -48t-25 -135h-241v482z" />
    <glyph glyph-name="afii10145" horiz-adv-x="1593" 
d="M72 1434h659v-265h-10q-44 0 -58 -16t-14 -66v-798h295v798q0 50 -13 66t-61 16h-10v265h662v-265h-78q-37 0 -54.5 -13t-17.5 -66v-746q0 -54 17.5 -67t54.5 -13h78v-264h-584v-498h-283v498h-583v264h78q37 0 54 13t17 67v746q0 53 -17 66t-54 13h-78v265z" />
    <glyph glyph-name="afii10099" horiz-adv-x="1343" 
d="M72 1638h473v-303h268v-168h-268v-196q114 65 270 65q142 0 232 -51t138.5 -145.5t67.5 -221.5t19 -307q0 -249 -37 -427t-139 -284t-285 -106q-200 0 -309 115l26 168q45 -26 89 -34.5t96 -8.5q64 0 94.5 45t30.5 176v551q0 106 -8.5 167.5t-39 95.5t-92.5 34
q-39 0 -81.5 -16.5t-71.5 -53.5v-452q0 -22 4.5 -36.5t18.5 -22t40 -7.5h6v-215h-542v215h39q38 0 51.5 13.5t13.5 52.5v886h-104v168h104v25q0 41 -16 52t-49 11h-39v215z" />
    <glyph glyph-name="quoteleft" unicode="&#x2018;" horiz-adv-x="717" 
d="M393 1042v-12q103 -9 165.5 -82.5t62.5 -169.5q0 -94 -68.5 -168.5t-179.5 -74.5q-109 0 -193 80.5t-84 252.5q0 118 52 232.5t126 207.5t144 160l170 -122q-55 -72 -94 -134l-32 -48t-35.5 -55.5t-33.5 -66.5z" />
    <glyph glyph-name="quoteright" unicode="&#x2019;" horiz-adv-x="717" 
d="M322 963v8q-68 7 -120 44.5t-79 93t-27 118.5q0 94 68 167.5t182 73.5q122 0 198.5 -85.5t76.5 -245.5q0 -109 -65 -259.5t-257 -342.5l-170 124q75 98 119 168t74 136z" />
    <glyph glyph-name="quotedblleft" unicode="&#x201c;" horiz-adv-x="1434" 
d="M1085 1042v-12q67 -4 120 -41.5t81.5 -95t28.5 -115.5q0 -59 -31 -115.5t-88 -92t-131 -35.5q-77 0 -140.5 38t-100 114.5t-36.5 180.5q0 64 21 140.5t60 151t103 156t140 152.5l168 -122q-63 -86 -108 -154.5t-87 -149.5zM418 1042v-12q102 -9 164.5 -82.5t62.5 -169.5
q0 -43 -17.5 -88t-49 -79t-80 -55t-103.5 -21q-56 0 -106 22t-88.5 63.5t-60 104.5t-21.5 143q0 116 72.5 271.5t250.5 328.5l170 -122l-134 -194t-60 -110z" />
    <glyph glyph-name="quotedblright" unicode="&#x201d;" horiz-adv-x="1434" 
d="M348 963v8q-102 12 -165.5 87.5t-63.5 168.5q0 95 71 168t179 73q74 0 137.5 -35.5t101 -111t37.5 -184.5q0 -126 -76 -281t-247 -321l-168 124q55 74 87.5 122.5t59 94t47.5 87.5zM1016 963v8q-67 7 -120 44.5t-80.5 93t-27.5 118.5q0 96 69.5 168.5t180.5 72.5
q77 0 140 -37t100 -112t37 -182q0 -156 -85 -301t-239 -301l-170 124l90 121t50 77.5t55 105.5z" />
    <glyph glyph-name="bullet" unicode="&#x2022;" horiz-adv-x="883" 
d="M119 684q0 93 46 167t121 114.5t156 40.5t156 -40.5t120.5 -115t45.5 -166.5q0 -93 -46 -167.5t-121 -115.5t-155 -41q-77 0 -153 41.5t-123 116t-47 166.5z" />
    <glyph glyph-name="emdash" unicode="&#x2013;" horiz-adv-x="1325" 
d="M119 565v264h1087v-264h-1087z" />
    <glyph glyph-name="endash" unicode="&#x2014;" horiz-adv-x="1669" 
d="M119 420v323h1431v-323h-1431z" />
    <glyph glyph-name="trademark" unicode="&#x2122;" horiz-adv-x="2101" 
d="M274 666v153h41q15 0 31 6q14 8 14 39v402h-26q-31 0 -42 -12t-13.5 -33l-4.5 -39l-4 -25h-151v277h743l2 -277h-151l-2 19v18q0 41 -13 56.5t-49 15.5h-28v-402q0 -28 16 -39q9 -6 16 -6h6h9h41v-153h-435zM965 1434h385l137 -301l108 301h387v-152h-26q-25 0 -35 -9
t-10 -38v-371q0 -28 10.5 -36.5t34.5 -8.5h26v-153h-376v153h12q13 0 22 9t9 20v258h-15l-133 -371h-110l-183 371v-242q0 -26 17 -37q12 -8 22 -8h15v-153h-297v153h24q47 0 47 45v371q0 26 -10.5 36.5t-36.5 10.5h-24v152z" />
    <glyph glyph-name="afii10106" unicode="&#x161;" horiz-adv-x="1772" 
d="M180 1085h1075v-215h-41q-61 0 -61 -53v-119h78q16 -2 53 -2q126 0 224.5 -22.5t169.5 -101.5t71 -238q0 -106 -41.5 -171.5t-120 -101.5t-185.5 -48.5t-249 -12.5h-461v215h27q32 0 48.5 12.5t16.5 53.5v565h-184q-3 -45 -4.5 -100.5t-3 -105t-2.5 -89.5
q-9 -279 -76.5 -426.5t-271.5 -147.5q-87 0 -146 33v312q51 -17 86 -17q49 0 75.5 31.5t39 121t12.5 269.5v25v26q0 57 -11.5 74.5t-57.5 17.5h-60v215zM1153 240h27q64 0 102.5 22t38.5 103q0 73 -36 96.5t-132 23.5v-245z" />
    <glyph glyph-name="quilsinglright" unicode="&#x203a;" horiz-adv-x="991" 
d="M872 627l-350 -627l-258 49l221 553l-295 528l277 82z" />
    <glyph glyph-name="afii10107" unicode="&#x153;" horiz-adv-x="1794" 
d="M1278 1085v-215h-41q-38 0 -49.5 -17.5t-11.5 -47.5v-107h38h76q133 0 234.5 -22.5t174.5 -102.5t73 -239q0 -107 -49.5 -180t-172.5 -113.5t-329 -40.5h-50h-436v215h8q39 0 51.5 15.5t12.5 50.5v151h-240v-151q0 -42 16 -54t48 -12h10v-215h-545v215h37q34 0 50 12
t16 54v524q0 36 -12 50.5t-54 14.5h-37v215h545v-215h-10q-33 0 -48.5 -12.5t-15.5 -52.5v-133h240v133q0 32 -11.5 48.5t-52.5 16.5h-8v215h543zM1176 485v-245h24q93 0 117 33t24 83v9v10q0 110 -127 110h-38z" />
    <glyph glyph-name="afii10109" horiz-adv-x="1288" 
d="M567 682h47q21 0 35.5 10.5t24.5 29t24 54t23 62.5q32 86 50 122.5t53.5 71t99.5 55.5t159 21q46 0 134 -18v-261q-57 -11 -79 -30t-57 -68q-40 -59 -85 -96.5t-130 -50.5v-21q89 0 149.5 -43t78.5 -123q9 -40 17.5 -58t20 -22t35.5 -4q29 0 50 9v-312q-82 -33 -170 -33
q-115 0 -199 65t-139 261q-21 76 -41.5 107.5t-61.5 31.5h-39v-161q0 -42 16 -54t50 -12h14v-215h-551v215h37q33 0 49.5 12.5t16.5 53.5v524q0 32 -10.5 48.5t-55.5 16.5h-37v215h563v-215h-26q-35 0 -50.5 -12.5t-15.5 -52.5v-123z" />
    <glyph glyph-name="afii10108" horiz-adv-x="1364" 
d="M96 0v215h39q24 0 38.5 5.5t21 20.5t6.5 40v886h-105v168h105v25q0 41 -16 52t-50 11h-39v215h473v-303h271v-168h-271v-163h11q91 65 178.5 84.5t183.5 19.5q246 0 246 -264q1 -31 1.5 -51t0.5 -41v-471q0 -40 15.5 -53t47.5 -13h39v-215h-538v215h14q33 0 43 15t10 51
v454q0 50 -23 92.5t-89 42.5q-58 0 -99 -26t-41 -109v-454q0 -22 4.5 -36t18 -22t41.5 -8h8v-215h-545z" />
    <glyph glyph-name="afii10193" unicode="&#x178;" horiz-adv-x="1368" 
d="M96 1085h547v-215h-10q-27 0 -45.5 -11t-18.5 -54v-565h230v565q0 40 -16.5 52.5t-51.5 12.5h-8v215h549v-215h-39q-37 0 -51.5 -13t-14.5 -52v-524q0 -43 15 -54.5t51 -11.5h39v-215h-473v-406h-230v406h-473v215h37q31 0 49.5 12t18.5 54v524q0 36 -12 50.5t-54 14.5
h-39v215z" />
    <glyph glyph-name="afii10062" unicode="&#xa1;" horiz-adv-x="1417" 
d="M23 1434h700v-265h-25q-45 0 -45 -34q0 -11 2.5 -19t9 -21t11.5 -22l147 -285l97 259q26 65 26 90q0 32 -61 32h-25v265h535v-265q-82 -1 -106.5 -18.5t-39.5 -69.5q-6 -18 -10 -32q-3 -7 -8 -20.5t-10 -24.5l-154 -414q-81 -220 -149 -348t-130.5 -186t-126.5 -74.5
t-163 -16.5q-73 0 -131 8t-117 27l-2 373q77 -60 155 -60q56 0 88.5 19.5t51.5 64.5l-330 625q-49 96 -70.5 119t-74.5 26l-45 2v265zM872 1833h291q-1 -90 -55.5 -166t-148.5 -120t-209 -44q-122 0 -213 43.5t-143 119t-60 167.5h293q27 -121 123 -121q95 0 122 121z" />
    <glyph glyph-name="afii10110" unicode="&#xa2;" horiz-adv-x="1214" 
d="M1214 1085v-215h-45q-20 0 -31 -6t-16 -16t-17 -46t-22 -61l-270 -782q-53 -153 -104 -251.5t-130 -156t-200 -57.5q-70 0 -135 37v313q47 -20 88 -20q117 0 131 174l-342 795q-6 17 -13.5 33t-16 25t-24 14t-44.5 5h-23v215h641v-215h-37h-10h-10q-19 0 -27 -2
q-12 -2 -16.5 -5.5t-5.5 -16.5v-12q3 -13 10 -27q1 -3 3.5 -12.5t4.5 -14.5l145 -336h21l110 353q13 40 13 47q0 17 -11.5 21.5t-44.5 4.5h-34v215h462zM195 1526h303q2 -47 32 -87t103 -40q62 0 95.5 35.5t33.5 91.5h305q-4 -99 -64.5 -180.5t-159.5 -125.5t-212 -44
q-103 0 -204 42.5t-166 121.5t-66 186z" />
    <glyph glyph-name="afii10057" unicode="&#xa3;" horiz-adv-x="815" 
d="M743 1434v-265h-59q-47 0 -58.5 -18.5t-11.5 -63.5v-600q0 -229 -62.5 -344.5t-148.5 -146.5t-190 -31q-57 0 -106 10t-107 41v293q51 -57 113 -57q73 0 73 96v742q0 53 -17 66t-56 13h-78v265h708z" />
    <glyph glyph-name="currency" unicode="&#xa4;" horiz-adv-x="1599" 
d="M242 1393l202 -203q176 119 357 119q89 0 180 -29.5t172 -89.5l207 205l121 -123l-205 -205q38 -47 62.5 -100t37.5 -103.5t16 -82t3 -66.5q0 -198 -119 -357l203 -202l-119 -123l-205 203q-161 -117 -354 -117q-96 0 -187 31.5t-170 85.5l-202 -203l-123 123l205 204
q-117 161 -117 355q0 87 29.5 180t87.5 172l-205 205zM444 715q0 -105 51.5 -186t134 -126t171.5 -45q88 0 169.5 44.5t133 126.5t51.5 186q0 78 -29 143t-80 112t-116 73t-129 26q-90 0 -172 -45t-133.5 -126t-51.5 -183z" />
    <glyph glyph-name="afii10050" unicode="&#xa5;" horiz-adv-x="1159" 
d="M72 0v264h78q37 0 54 13t17 67v746q0 53 -17 66t-54 13h-78v265h690q46 0 68.5 12t32.5 36.5t14.5 65t9.5 90.5h250v-493h-488v-799q0 -48 15 -65t57 -17h78v-264h-727z" />
    <glyph glyph-name="brokenbar" unicode="&#xa6;" horiz-adv-x="764" 
d="M119 240q0 64 33.5 125t94.5 99t136 38q65 0 125.5 -32.5t98.5 -93t38 -136.5q0 -70 -33.5 -130.5t-93.5 -96.5t-135 -36q-76 0 -136.5 36.5t-94 98t-33.5 128.5zM119 846q0 66 34 126.5t94 98t136 37.5q64 0 124.5 -31.5t99 -92t38.5 -138.5q0 -113 -81 -187.5
t-181 -74.5q-115 0 -189.5 80.5t-74.5 181.5z" />
    <glyph glyph-name="section" unicode="&#xa7;" horiz-adv-x="1425" 
d="M1233 1030h-305q1 11 1.5 19.5t0.5 21.5q0 92 -33 136t-123 44q-86 0 -122 -41.5t-36 -91.5q0 -49 40 -93.5t102.5 -81t154 -79.5t123.5 -61q132 -71 189 -135.5t57 -178.5q0 -92 -53 -185.5t-129 -162.5v-10q94 -85 94 -229q0 -77 -41 -145.5t-119 -120.5t-181 -79.5
t-228 -27.5q-123 0 -261 54t-208 177v209h307v-61q0 -83 28.5 -123.5t116.5 -40.5q66 0 116 31t50 96q0 75 -51.5 116t-175.5 101l-152 75t-131.5 79.5t-88 98.5t-32.5 132q0 59 24 114t76.5 104.5t133.5 88.5v23q-95 72 -123.5 150t-28.5 159q0 66 33.5 129.5t98.5 115
t160 81.5t216 30q101 0 194.5 -25.5t172.5 -77t133 -128.5v-207zM618 424l271 -152q55 55 55 113q0 26 -16.5 48t-44 40.5t-66 39.5l-80.5 44l-192 115q-29 -8 -46.5 -38.5t-17.5 -62.5q0 -33 20 -59t41.5 -41t75.5 -47z" />
    <glyph glyph-name="afii10023" unicode="&#xa8;" horiz-adv-x="1296" 
d="M72 1434h1130v-437h-262q-11 80 -14 88q-14 41 -33.5 50.5t-77.5 9.5h-166v-273h281v-288h-281v-295h156q72 0 99.5 18.5t37.5 57.5q6 17 16 79h267v-444h-1153v264h78q37 0 54 13t17 67v746q0 53 -17 66t-54 13h-78v265zM168 1718q0 80 56.5 141.5t146.5 61.5
q43 0 81 -17t64.5 -45.5t41.5 -64t15 -76.5q0 -51 -25.5 -97.5t-71.5 -75.5t-105 -29q-90 0 -146.5 62t-56.5 140zM715 1718q0 90 62 146.5t141 56.5q60 0 105.5 -29t71 -76.5t25.5 -97.5q0 -51 -25 -97.5t-70.5 -75.5t-106.5 -29q-79 0 -141 57t-62 145z" />
    <glyph glyph-name="copyright" unicode="&#xa9;" horiz-adv-x="1741" 
d="M119 717q0 188 95 362.5t268 281.5t388 107q167 0 306 -63t238.5 -170t153.5 -243t54 -275q0 -140 -54 -275t-152.5 -242t-239.5 -171t-306 -64q-164 0 -303.5 63.5t-240 172.5t-154 244.5t-53.5 271.5zM299 717q0 -108 40 -209.5t117 -184t183.5 -129.5t230.5 -47
q126 0 233 47.5t182 128.5t116 184.5t41 209.5t-41 209.5t-116 184t-182.5 129t-232.5 48.5q-164 0 -295 -81t-203.5 -214t-72.5 -276zM973 639h289q-27 -213 -144.5 -273.5t-236.5 -60.5q-79 0 -167.5 27.5t-152.5 111.5q-82 109 -82 271q0 98 31.5 170.5t54.5 99.5
q71 92 153 116.5t161 24.5q118 0 202 -45t126.5 -117.5t47.5 -156.5h-284q0 55 -13.5 87.5t-34 46t-42.5 13.5q-57 0 -75 -56t-18 -142v-76q0 -105 21 -153t72 -48q35 0 55 20.5t27.5 56.5t9.5 83z" />
    <glyph glyph-name="afii10053" unicode="&#xaa;" horiz-adv-x="1452" 
d="M928 573h452q-5 -110 -43 -217t-116.5 -195.5t-206.5 -142t-301 -53.5q-124 0 -262 52t-240 202q-53 78 -82.5 163.5t-43 171t-13.5 163.5q0 98 18 215t80.5 241t196.5 209.5t350 85.5q199 0 342 -70t219 -191.5t84 -276.5h-455q0 50 -13 106.5t-55 101t-118 44.5
q-82 0 -127 -51t-45 -179v-73h289v-312h-289v-45q0 -105 33.5 -187.5t150.5 -82.5q77 0 136 50t59 202v69z" />
    <glyph glyph-name="guillemotleft" unicode="&#xab;" horiz-adv-x="1532" 
d="M119 627l407 585l275 -82l-293 -528l221 -553l-258 -49zM735 610l350 502l256 -76l-217 -446l191 -469l-277 -53z" />
    <glyph glyph-name="logicalnot" unicode="&#xac;" horiz-adv-x="1325" 
d="M942 334v231h-823v264h1087v-495h-264z" />
    <glyph glyph-name="registered" unicode="&#xae;" horiz-adv-x="1741" 
d="M119 717q0 164 62.5 303t170.5 239.5t243 154.5t275 54q141 0 276 -54t242.5 -154t170.5 -239.5t63 -303.5q0 -165 -63 -305t-170.5 -239.5t-242 -153.5t-276.5 -54q-141 0 -274.5 53.5t-242 153.5t-171.5 240t-63 305zM295 717q0 -142 72.5 -276t204.5 -217t298 -83
t298.5 83t205 217t72.5 276q0 106 -41 209t-116.5 185t-183 130.5t-235.5 48.5q-127 0 -234.5 -48.5t-183.5 -131t-116.5 -184t-40.5 -209.5zM545 1100h268q129 0 205 -13.5t118 -60t42 -139.5q0 -40 -19.5 -83.5t-77.5 -76.5l58 -119q16 -35 44.5 -68.5t53.5 -33.5
q12 0 23 -4v-133h-355v133q8 4 15 4q22 0 22 22q0 26 -18 47l-39 80h-62v-96q1 -3 1.5 -5.5t0.5 -8.5v-8q0 -16 6 -25t29 -10v-133h-315v133h28q35 0 37 24v19v14v348v19v18q-4 23 -37 23h-28v133zM823 950v-147q57 0 84 17.5t27 60.5q0 45 -27 57t-84 12z" />
    <glyph glyph-name="afii10056" unicode="&#xaf;" horiz-adv-x="1051" 
d="M870 1434v-265h-57q-50 0 -62 -18.5t-12 -63.5v-743q0 -36 9.5 -54t24 -22t40.5 -4h57v-264h-688v264h58q37 0 54 13t17 67v743q0 45 -11.5 63.5t-59.5 18.5h-58v265h688zM47 1718q0 89 62 146t143 57q86 0 144.5 -61.5t58.5 -141.5q0 -52 -26 -98t-72 -75t-105 -29
q-80 0 -142.5 57t-62.5 145zM596 1718q0 90 62 146.5t141 56.5q46 0 83.5 -17t64.5 -46t42 -64.5t15 -75.5q0 -77 -58.5 -139.5t-146.5 -62.5q-89 0 -146 62t-57 140z" />
    <glyph glyph-name="degree" unicode="&#xb0;" horiz-adv-x="836" 
d="M119 1171q0 90 42.5 157.5t111 103.5t145.5 36q87 0 155 -41.5t106 -110.5t38 -145q0 -86 -43 -154.5t-112.5 -106.5t-143.5 -38q-75 0 -144.5 37.5t-112 105.5t-42.5 156zM289 1171q0 -58 39.5 -93.5t89.5 -35.5q52 0 91.5 35.5t39.5 93.5q0 57 -40.5 94.5t-90.5 37.5
t-89.5 -37t-39.5 -95z" />
    <glyph glyph-name="plusminus" unicode="&#xb1;" horiz-adv-x="1300" 
d="M782 358h-262v400h-401v262h401v399h262v-399h400v-262h-400v-400zM119 0v264h1063v-264h-1063z" />
    <glyph glyph-name="afii10055" unicode="&#xb2;" horiz-adv-x="870" 
d="M72 0v264h78q37 0 54 13t17 67v746q0 53 -17 66t-54 13h-78v265h727v-265h-76q-39 0 -56.5 -13t-17.5 -66v-746q0 -36 9.5 -54t24 -22t40.5 -4h76v-264h-727z" />
    <glyph glyph-name="afii10103" unicode="&#xb3;" horiz-adv-x="762" 
d="M104 0v215h27q26 0 40.5 8t19 22t4.5 36v524q0 33 -11.5 49t-52.5 16h-35v215h570v-215h-37q-41 0 -53.5 -15t-12.5 -50v-524q0 -18 4 -32t10 -20t19.5 -10t32.5 -4h37v-215h-562zM178 1440q0 78 58 140t145 62q90 0 146.5 -61.5t56.5 -140.5q0 -60 -29.5 -106.5
t-76 -72.5t-97.5 -26q-56 0 -103 30t-73.5 77t-26.5 98z" />
    <glyph glyph-name="afii10098" unicode="&#xb4;" horiz-adv-x="1026" 
d="M96 1085h551q52 0 74.5 18.5t32.5 78.5l8 51h217v-387h-412v-565q0 -42 16 -54t50 -12h57v-215h-594v215h37q34 0 50 12t16 54v524q0 36 -12 50.5t-54 14.5h-37v215z" />
    <glyph glyph-name="mu" unicode="&#xb5;" horiz-adv-x="1247" 
d="M72 1085h370v-565q0 -119 29.5 -211t136.5 -92q33 0 72 23.5t69.5 92.5t30.5 193v559h371v-1085h-281v244h-6q-24 -109 -98.5 -188t-175.5 -79q-98 0 -164 67.5t-94 148.5v-685l-260 3v1574z" />
    <glyph glyph-name="paragraph" unicode="&#xb6;" horiz-adv-x="0" 
 />
    <glyph glyph-name="periodcentered" unicode="&#x2219;" horiz-adv-x="717" 
d="M96 692q0 105 73 184.5t189 79.5q78 0 137.5 -37.5t92.5 -98t33 -128.5q0 -103 -73.5 -182.5t-189.5 -79.5q-117 0 -189.5 79.5t-72.5 182.5z" />
    <glyph glyph-name="afii10071" unicode="&#xb8;" horiz-adv-x="1051" 
d="M696 334h346q-23 -99 -85.5 -179t-169 -129t-250.5 -49q-164 0 -269 57.5t-164 131.5q-54 69 -82 165t-28 204q0 219 119 374q67 84 173.5 141.5t262.5 57.5q171 0 285 -89.5t168.5 -237t54.5 -316.5h-641v-51q0 -69 11.5 -111.5t42.5 -64t91 -21.5q110 0 135 117z
M424 680h272q-3 190 -135 190q-55 0 -96 -46.5t-41 -143.5zM47 1440q0 50 26 96.5t72.5 76t106.5 29.5q91 0 147 -61t56 -141q0 -60 -29.5 -106.5t-76 -72.5t-97.5 -26q-56 0 -104 30t-74.5 77t-26.5 98zM596 1440q0 61 29 106.5t75.5 70.5t98.5 25q88 0 146.5 -61.5
t58.5 -140.5q0 -77 -59 -141t-146 -64q-50 0 -96.5 26t-76.5 72.5t-30 106.5z" />
    <glyph glyph-name="afii61352" unicode="&#xb9;" horiz-adv-x="2554" 
d="M629 1434l463 -781h10v434q0 45 -11.5 63.5t-60.5 18.5h-55v265h518v-265h-55q-49 0 -60.5 -18.5t-11.5 -63.5v-1087h-391l-455 768h-10l-2 -424q0 -54 17 -67t53 -13h57v-264h-516v264h57q36 0 53 13t17 67v743q0 45 -10.5 63.5t-59.5 18.5h-57v265h510zM1636 0v270h725
v-270h-725zM1548 901q0 105 34 216t133.5 193.5t275.5 82.5q180 0 279.5 -82.5t132 -192t32.5 -217.5q0 -111 -32.5 -219t-131.5 -189t-280 -81q-177 0 -276 81t-133 191t-34 217zM1991 1161q-44 0 -65 -34.5t-21 -137.5v-176q0 -79 15 -125.5t71 -46.5q53 0 68.5 46
t15.5 126v176q0 104 -20.5 138t-63.5 34z" />
    <glyph glyph-name="afii10101" unicode="&#xba;" horiz-adv-x="1178" 
d="M475 684h205v-240h-205q0 -75 10 -124t37 -77t78 -28q43 0 84 34t41 118v45h405q0 -82 -31 -160.5t-96.5 -140.5t-166.5 -98t-236 -36q-138 0 -256 51.5t-184 139.5q-20 26 -46 74t-46.5 125t-20.5 178q0 83 27 178q31 122 146.5 253.5t402.5 131.5q105 0 192 -29
t148 -79.5t99.5 -119.5t49.5 -153h-391q-8 70 -36 106.5t-89 36.5q-75 0 -98 -46t-23 -140z" />
    <glyph glyph-name="guillemotright" unicode="&#xbb;" horiz-adv-x="1530" 
d="M1411 627l-350 -627l-258 49l219 553l-293 528l275 82zM795 610l-301 -542l-277 53l189 469l-216 446l256 76z" />
    <glyph glyph-name="afii10105" unicode="&#xbc;" horiz-adv-x="786" 
d="M625 1085v-1136q0 -126 -33 -212.5t-88.5 -135t-127.5 -69.5t-149 -21q-94 0 -192 24l41 279q30 -25 74 -31h34q43 7 57.5 42t14.5 97v883q0 40 -17.5 52.5t-52.5 12.5h-73v215h512zM201 1436q0 79 58.5 140.5t146.5 61.5q79 0 140.5 -56t61.5 -146q0 -79 -57 -141
t-145 -62q-60 0 -106.5 30t-72.5 76.5t-26 96.5z" />
    <glyph glyph-name="afii10054" unicode="&#xbd;" horiz-adv-x="1307" 
d="M35 406h459q0 -72 32.5 -112t114.5 -40q143 0 143 111q0 47 -35 72.5t-87 45.5q-237 96 -345 150.5t-175.5 143.5t-67.5 233q0 277 181 367.5t404 90.5q114 0 213 -13t190.5 -58.5t148.5 -140.5t57 -246h-455v49q0 52 -24 87.5t-107 35.5q-121 0 -121 -119
q0 -37 13 -60.5t47 -42t102 -38.5q129 -37 223.5 -73.5t168 -88t115.5 -129.5t42 -185q0 -297 -208 -389t-423 -92q-147 0 -276.5 26.5t-229.5 124t-100 290.5z" />
    <glyph glyph-name="afii10102" unicode="&#xbe;" horiz-adv-x="1036" 
d="M47 301h352q4 -84 117 -84q119 0 119 57q0 40 -48.5 65.5t-123.5 49.5q-191 64 -290 143t-99 232q0 100 51.5 178.5t155 122t251.5 43.5q214 0 330.5 -65.5t124.5 -262.5l-348 -2q-4 15 -4 27q-4 42 -38 53.5t-65 11.5q-52 0 -76 -18t-24 -45q0 -29 18 -46t58 -31.5
t106.5 -31t73.5 -18.5q120 -32 210.5 -103.5t90.5 -222.5q0 -71 -32.5 -154t-144.5 -153t-329 -70q-166 0 -262.5 47t-134 119t-39.5 158z" />
    <glyph glyph-name="afii10104" unicode="&#xbf;" horiz-adv-x="1001" 
d="M223 0v215h29q38 0 50.5 15.5t12.5 50.5v524q0 36 -12 50.5t-51 14.5h-37v215h571v-215h-36q-41 0 -53.5 -15t-12.5 -50v-524q0 -18 4 -32t10 -20t19.5 -10t32.5 -4h36v-215h-563zM23 1440q0 80 57 141t145 61q81 0 143 -56t62 -146q0 -60 -30 -106.5t-77 -72.5t-98 -26
q-56 0 -103 30t-73 77t-26 98zM571 1440q0 78 58 140t145 62q82 0 143.5 -56.5t61.5 -145.5q0 -58 -30 -105.5t-77 -73.5t-98 -26q-56 0 -103 30t-73.5 77t-26.5 98z" />
    <glyph glyph-name="afii10017" unicode="&#xc0;" horiz-adv-x="1544" 
d="M1098 1434l288 -1049q22 -72 38.5 -96.5t66.5 -24.5h31v-264h-684v264h49q55 0 55 33q0 13 -8 41q-1 6 -3 14t-3 13h-424q-12 -30 -12 -50q0 -23 9 -34t21.5 -14t28.5 -3h20v-264h-548v264h32q38 0 60 14t39 50.5t39 109.5l198 635q17 49 17 68q0 15 -13.5 21.5
t-72.5 6.5h-35v265h811zM719 1063l-125 -410h250l-115 410h-10z" />
    <glyph glyph-name="afii10017" unicode="&#x410;" horiz-adv-x="1544" 
d="M1098 1434l288 -1049q22 -72 38.5 -96.5t66.5 -24.5h31v-264h-684v264h49q55 0 55 33q0 13 -8 41q-1 6 -3 14t-3 13h-424q-12 -30 -12 -50q0 -23 9 -34t21.5 -14t28.5 -3h20v-264h-548v264h32q38 0 60 14t39 50.5t39 109.5l198 635q17 49 17 68q0 15 -13.5 21.5
t-72.5 6.5h-35v265h811zM719 1063l-125 -410h250l-115 410h-10z" />
    <glyph glyph-name="afii10018" unicode="&#xc1;" horiz-adv-x="1407" 
d="M1227 1434v-410h-252l-4 31q-7 52 -26 72t-87 20h-209v-273h158q178 0 302.5 -46.5t187.5 -143.5t63 -244q0 -142 -55 -230t-157 -134t-231.5 -61t-314.5 -15h-530v264h78q37 0 54 13t17 67v746q0 53 -17 66t-54 13h-78v265h1155zM649 289h25q58 0 102 9t75.5 43
t31.5 101q0 80 -52.5 113t-132.5 33q-32 0 -49 -2v-297z" />
    <glyph glyph-name="afii10018" unicode="&#x411;" horiz-adv-x="1407" 
d="M1227 1434v-410h-252l-4 31q-7 52 -26 72t-87 20h-209v-273h158q178 0 302.5 -46.5t187.5 -143.5t63 -244q0 -142 -55 -230t-157 -134t-231.5 -61t-314.5 -15h-530v264h78q37 0 54 13t17 67v746q0 53 -17 66t-54 13h-78v265h1155zM649 289h25q58 0 102 9t75.5 43
t31.5 101q0 80 -52.5 113t-132.5 33q-32 0 -49 -2v-297z" />
    <glyph glyph-name="afii10019" unicode="&#xc2;" horiz-adv-x="1411" 
d="M72 1434h583q231 0 365 -17.5t223.5 -97t89.5 -248.5q0 -83 -37.5 -154.5t-104.5 -114t-151 -42.5h-24v-19h39q77 0 151.5 -39.5t122 -118.5t47.5 -194q0 -139 -55 -219t-156.5 -116t-235.5 -45t-345 -9h-512v264h78q37 0 54 13t17 67v746q0 53 -17 66t-54 13h-78v265z
M649 866h39q89 0 142 23t53 108q0 96 -52 122t-126 26h-56v-279zM649 289h41q102 0 155.5 31t53.5 122q0 88 -54 112t-134 24h-62v-289z" />
    <glyph glyph-name="afii10019" unicode="&#x412;" horiz-adv-x="1411" 
d="M72 1434h583q231 0 365 -17.5t223.5 -97t89.5 -248.5q0 -83 -37.5 -154.5t-104.5 -114t-151 -42.5h-24v-19h39q77 0 151.5 -39.5t122 -118.5t47.5 -194q0 -139 -55 -219t-156.5 -116t-235.5 -45t-345 -9h-512v264h78q37 0 54 13t17 67v746q0 53 -17 66t-54 13h-78v265z
M649 866h39q89 0 142 23t53 108q0 96 -52 122t-126 26h-56v-279zM649 289h41q102 0 155.5 31t53.5 122q0 88 -54 112t-134 24h-62v-289z" />
    <glyph glyph-name="afii10020" unicode="&#xc3;" horiz-adv-x="1137" 
d="M1137 1434v-494h-250l-9.5 91t-14.5 65.5t-32.5 36.5t-68.5 12h-113v-801q0 -36 9.5 -54t24 -22t40.5 -4h76v-264h-727v264h78q37 0 54 13t17 67v746q0 53 -17 66t-54 13h-78v265h1065z" />
    <glyph glyph-name="afii10020" unicode="&#x413;" horiz-adv-x="1137" 
d="M1137 1434v-494h-250l-9.5 91t-14.5 65.5t-32.5 36.5t-68.5 12h-113v-801q0 -36 9.5 -54t24 -22t40.5 -4h76v-264h-727v264h78q37 0 54 13t17 67v746q0 53 -17 66t-54 13h-78v265h1065z" />
    <glyph glyph-name="afii10021" unicode="&#xc4;" horiz-adv-x="1503" 
d="M147 1434h1287v-265h-56q-49 0 -61 -16t-12 -66v-696q0 -48 13.5 -65t59.5 -17h74v-624h-252q-7 80 -12 118q-4 30 -6.5 63t-3.5 38q-8 62 -32.5 79t-90.5 17h-658q-41 0 -54 -13t-24 -69l-36 -233h-252v624q70 12 111.5 43.5t64 79.5t35 108t30.5 177q10 52 20.5 139
t10.5 178v37v41q0 35 -18 46t-97 11h-41v265zM877 289v856h-242q-2 -105 -14 -262q-9 -97 -9 -103q-7 -89 -24 -221q-9 -69 -22 -137t-34 -133h345z" />
    <glyph glyph-name="afii10021" unicode="&#x414;" horiz-adv-x="1503" 
d="M147 1434h1287v-265h-56q-49 0 -61 -16t-12 -66v-696q0 -48 13.5 -65t59.5 -17h74v-624h-252q-7 80 -12 118q-4 30 -6.5 63t-3.5 38q-8 62 -32.5 79t-90.5 17h-658q-41 0 -54 -13t-24 -69l-36 -233h-252v624q70 12 111.5 43.5t64 79.5t35 108t30.5 177q10 52 20.5 139
t10.5 178v37v41q0 35 -18 46t-97 11h-41v265zM877 289v856h-242q-2 -105 -14 -262q-9 -97 -9 -103q-7 -89 -24 -221q-9 -69 -22 -137t-34 -133h345z" />
    <glyph glyph-name="afii10022" unicode="&#xc5;" horiz-adv-x="1294" 
d="M72 0v264h78q37 0 54 13t17 67v746q0 53 -17 66t-54 13h-78v265h1130l-2 -437h-260q-5 45 -16 88q-12 41 -34 50.5t-77 9.5h-164v-273h279v-288h-279v-295h156q70 0 96.5 18t38.5 58q14 51 18 79h265v-444h-1151z" />
    <glyph glyph-name="afii10022" unicode="&#x415;" horiz-adv-x="1294" 
d="M72 0v264h78q37 0 54 13t17 67v746q0 53 -17 66t-54 13h-78v265h1130l-2 -437h-260q-5 45 -16 88q-12 41 -34 50.5t-77 9.5h-164v-273h279v-288h-279v-295h156q70 0 96.5 18t38.5 58q14 51 18 79h265v-444h-1151z" />
    <glyph glyph-name="afii10024" unicode="&#xc6;" horiz-adv-x="2038" 
d="M1348 1434v-265h-50q-37 0 -54 -13t-17 -66v-199h33q33 0 48.5 11.5t31.5 50t55 147.5q51 151 100.5 228.5t106.5 106t145 33.5h61q55 -8 131 -30v-340q-18 6 -34 6q-32 0 -62 -31t-71 -112q-43 -84 -87.5 -125.5t-146.5 -63.5v-27q106 0 178 -62t96 -179
q13 -57 29.5 -83t61.5 -26q11 0 28.5 5t30.5 8l4 -408q-87 -35 -192 -35q-114 0 -185.5 55t-113.5 145.5t-89 246.5q-31 103 -54 146.5t-70 43.5h-35v-258q0 -54 17 -67t54 -13h50v-264h-660v264h49q39 0 56.5 13t17.5 67v258h-37q-45 0 -64.5 -36.5t-58.5 -153.5
q-51 -162 -92 -250t-111.5 -142.5t-185.5 -54.5q-102 0 -190 35l2 408q36 -13 61 -13q45 0 60.5 27.5t27.5 81.5q28 123 102.5 182t172.5 59v27q-72 16 -114.5 41.5t-66 57.5t-53.5 90q-36 74 -67 109.5t-66 35.5q-9 0 -35 -8v340q85 24 131 30h64q97 -6 152.5 -36.5
t101 -110t106.5 -250.5q32 -91 48 -127t30.5 -44.5t46.5 -8.5h35v199q0 53 -17.5 66t-56.5 13h-49v265h660z" />
    <glyph glyph-name="afii10024" unicode="&#x416;" horiz-adv-x="2038" 
d="M1348 1434v-265h-50q-37 0 -54 -13t-17 -66v-199h33q33 0 48.5 11.5t31.5 50t55 147.5q51 151 100.5 228.5t106.5 106t145 33.5h61q55 -8 131 -30v-340q-18 6 -34 6q-32 0 -62 -31t-71 -112q-43 -84 -87.5 -125.5t-146.5 -63.5v-27q106 0 178 -62t96 -179
q13 -57 29.5 -83t61.5 -26q11 0 28.5 5t30.5 8l4 -408q-87 -35 -192 -35q-114 0 -185.5 55t-113.5 145.5t-89 246.5q-31 103 -54 146.5t-70 43.5h-35v-258q0 -54 17 -67t54 -13h50v-264h-660v264h49q39 0 56.5 13t17.5 67v258h-37q-45 0 -64.5 -36.5t-58.5 -153.5
q-51 -162 -92 -250t-111.5 -142.5t-185.5 -54.5q-102 0 -190 35l2 408q36 -13 61 -13q45 0 60.5 27.5t27.5 81.5q28 123 102.5 182t172.5 59v27q-72 16 -114.5 41.5t-66 57.5t-53.5 90q-36 74 -67 109.5t-66 35.5q-9 0 -35 -8v340q85 24 131 30h64q97 -6 152.5 -36.5
t101 -110t106.5 -250.5q32 -91 48 -127t30.5 -44.5t46.5 -8.5h35v199q0 53 -17.5 66t-56.5 13h-49v265h660z" />
    <glyph glyph-name="afii10025" unicode="&#xc7;" horiz-adv-x="1413" 
d="M678 608h-53v287q83 0 129.5 10t70 43.5t23.5 102.5q0 131 -143 131q-56 0 -87 -15.5t-50 -64t-29 -144.5h-420q4 123 54.5 236t187.5 193.5t374 80.5q209 0 385 -74t176 -296q0 -86 -33 -153.5t-89 -109t-123 -57.5v-14q74 -8 141 -47.5t108 -110.5t41 -170
q0 -164 -79.5 -270t-209.5 -153.5t-288 -47.5q-205 0 -343.5 57t-214 148.5t-105 194.5t-29.5 208h442v-67q0 -158 53 -206t138 -48q61 0 105.5 24.5t53.5 114.5v45q-5 79 -43.5 123.5t-142.5 48.5z" />
    <glyph glyph-name="afii10025" unicode="&#x417;" horiz-adv-x="1413" 
d="M678 608h-53v287q83 0 129.5 10t70 43.5t23.5 102.5q0 131 -143 131q-56 0 -87 -15.5t-50 -64t-29 -144.5h-420q4 123 54.5 236t187.5 193.5t374 80.5q209 0 385 -74t176 -296q0 -86 -33 -153.5t-89 -109t-123 -57.5v-14q74 -8 141 -47.5t108 -110.5t41 -170
q0 -164 -79.5 -270t-209.5 -153.5t-288 -47.5q-205 0 -343.5 57t-214 148.5t-105 194.5t-29.5 208h442v-67q0 -158 53 -206t138 -48q61 0 105.5 24.5t53.5 114.5v45q-5 79 -43.5 123.5t-142.5 48.5z" />
    <glyph glyph-name="afii10026" unicode="&#xc8;" horiz-adv-x="1573" 
d="M979 1434h522v-265h-78q-39 0 -56 -13t-17 -66v-746q0 -54 17 -67t56 -13h78v-264h-688v264h37q46 0 59 20t13 62v361h-15l-305 -707h-530v264h78q46 0 58.5 15.5t12.5 66.5v744q0 53 -17 66t-54 13h-78v265h686v-265h-35q-39 0 -56.5 -13t-17.5 -66v-398h15z" />
    <glyph glyph-name="afii10026" unicode="&#x418;" horiz-adv-x="1573" 
d="M979 1434h522v-265h-78q-39 0 -56 -13t-17 -66v-746q0 -54 17 -67t56 -13h78v-264h-688v264h37q46 0 59 20t13 62v361h-15l-305 -707h-530v264h78q46 0 58.5 15.5t12.5 66.5v744q0 53 -17 66t-54 13h-78v265h686v-265h-35q-39 0 -56.5 -13t-17.5 -66v-398h15z" />
    <glyph glyph-name="afii10027" unicode="&#xc9;" horiz-adv-x="1464" 
d="M924 1434h524v-265h-78q-39 0 -56.5 -13t-17.5 -66v-746q0 -36 9.5 -54t24 -22t40.5 -4h78v-264h-688v264h37q45 0 58 19t13 63v361h-16l-305 -707h-531v264h78q30 0 45.5 5.5t22 23t6.5 53.5v744q0 53 -17.5 66t-56.5 13h-78v265h689v-265h-35q-47 0 -60.5 -19
t-13.5 -60v-398h12zM864 1845h291q-2 -70 -32.5 -128.5t-86.5 -104t-131.5 -71t-163.5 -25.5q-181 0 -291 93.5t-124 235.5h292q15 -60 43 -90.5t80 -30.5q54 0 77.5 27.5t45.5 93.5z" />
    <glyph glyph-name="afii10027" unicode="&#x419;" horiz-adv-x="1464" 
d="M924 1434h524v-265h-78q-39 0 -56.5 -13t-17.5 -66v-746q0 -36 9.5 -54t24 -22t40.5 -4h78v-264h-688v264h37q45 0 58 19t13 63v361h-16l-305 -707h-531v264h78q30 0 45.5 5.5t22 23t6.5 53.5v744q0 53 -17.5 66t-56.5 13h-78v265h689v-265h-35q-47 0 -60.5 -19
t-13.5 -60v-398h12zM864 1845h291q-2 -70 -32.5 -128.5t-86.5 -104t-131.5 -71t-163.5 -25.5q-181 0 -291 93.5t-124 235.5h292q15 -60 43 -90.5t80 -30.5q54 0 77.5 27.5t45.5 93.5z" />
    <glyph glyph-name="afii10028" unicode="&#xca;" horiz-adv-x="1458" 
d="M647 602v-254q0 -54 20 -69t58 -15h33v-264h-686v264h75q38 0 55 13t17 67v746q0 53 -17 66t-55 13h-75v265h686v-265h-33q-34 0 -56 -14t-22 -72v-192h37q31 0 47.5 11.5t37 57.5t52.5 140q36 102 55 149t57 100.5t97.5 86t145.5 32.5q89 0 190 -30v-340q-10 4 -31 4
q-38 0 -62 -30.5t-54 -90.5q-35 -69 -60 -104.5t-70.5 -64t-123.5 -40.5v-27q64 0 118.5 -22t96.5 -74t59 -135l8 -36t14.5 -40.5t25.5 -29t42 -11.5t57 11v-408q-80 -35 -172 -35q-86 0 -150 30.5t-107.5 87.5t-75.5 133.5t-70 195.5q-33 110 -56 150t-69 40h-39z" />
    <glyph glyph-name="afii10028" unicode="&#x41a;" horiz-adv-x="1458" 
d="M647 602v-254q0 -54 20 -69t58 -15h33v-264h-686v264h75q38 0 55 13t17 67v746q0 53 -17 66t-55 13h-75v265h686v-265h-33q-34 0 -56 -14t-22 -72v-192h37q31 0 47.5 11.5t37 57.5t52.5 140q36 102 55 149t57 100.5t97.5 86t145.5 32.5q89 0 190 -30v-340q-10 4 -31 4
q-38 0 -62 -30.5t-54 -90.5q-35 -69 -60 -104.5t-70.5 -64t-123.5 -40.5v-27q64 0 118.5 -22t96.5 -74t59 -135l8 -36t14.5 -40.5t25.5 -29t42 -11.5t57 11v-408q-80 -35 -172 -35q-86 0 -150 30.5t-107.5 87.5t-75.5 133.5t-70 195.5q-33 110 -56 150t-69 40h-39z" />
    <glyph glyph-name="afii10029" unicode="&#xcb;" horiz-adv-x="1546" 
d="M1473 1434v-265h-50q-37 0 -59.5 -14t-22.5 -72v-733q0 -39 11 -58.5t27.5 -23.5t43.5 -4h52v-264h-668v264h24q38 0 60 14t22 70v797h-231q-4 -163 -14 -397q-7 -170 -17.5 -284.5t-49.5 -232t-122.5 -192t-220.5 -74.5q-98 0 -186 45v408q77 -21 110 -21q67 0 99.5 51
t41.5 123t13 187q1 25 2.5 47.5t2 35t1.5 29.5q6 86 6 152q0 98 -16.5 122.5t-73.5 24.5h-76v265h1291z" />
    <glyph glyph-name="afii10029" unicode="&#x41b;" horiz-adv-x="1546" 
d="M1473 1434v-265h-50q-37 0 -59.5 -14t-22.5 -72v-733q0 -39 11 -58.5t27.5 -23.5t43.5 -4h52v-264h-668v264h24q38 0 60 14t22 70v797h-231q-4 -163 -14 -397q-7 -170 -17.5 -284.5t-49.5 -232t-122.5 -192t-220.5 -74.5q-98 0 -186 45v408q77 -21 110 -21q67 0 99.5 51
t41.5 123t13 187q1 25 2.5 47.5t2 35t1.5 29.5q6 86 6 152q0 98 -16.5 122.5t-73.5 24.5h-76v265h1291z" />
    <glyph glyph-name="afii10030" unicode="&#xcc;" horiz-adv-x="1802" 
d="M1061 0v264h39q37 0 54 13t17 67l3 498h-23l-250 -619h-182l-264 608h-13v-487q0 -41 13.5 -60.5t56.5 -19.5h39v-264h-479v264h59q40 0 56 14t16 66v743q0 45 -11.5 63.5t-60.5 18.5h-59v265h561l241 -562h31l228 562h598v-265h-58q-50 0 -62 -18.5t-12 -63.5v-743
q0 -36 9.5 -54t24 -22t40.5 -4h58v-264h-670z" />
    <glyph glyph-name="afii10030" unicode="&#x41c;" horiz-adv-x="1802" 
d="M1061 0v264h39q37 0 54 13t17 67l3 498h-23l-250 -619h-182l-264 608h-13v-487q0 -41 13.5 -60.5t56.5 -19.5h39v-264h-479v264h59q40 0 56 14t16 66v743q0 45 -11.5 63.5t-60.5 18.5h-59v265h561l241 -562h31l228 562h598v-265h-58q-50 0 -62 -18.5t-12 -63.5v-743
q0 -36 9.5 -54t24 -22t40.5 -4h58v-264h-670z" />
    <glyph glyph-name="afii10031" unicode="&#xcd;" horiz-adv-x="1597" 
d="M72 0v264h78q37 0 54 13t17 67v746q0 53 -17 66t-54 13h-78v265h657v-265h-10q-43 0 -56.5 -16t-13.5 -66v-186h297v186q0 45 -11.5 63.5t-60.5 18.5h-10v265h662v-265h-78q-36 0 -55 -13.5t-19 -65.5v-746q0 -53 19 -66.5t55 -13.5h78v-264h-662v264h10q38 0 55 13
t17 67v270h-297v-270q0 -37 7.5 -54.5t22 -21.5t44.5 -4h8v-264h-659z" />
    <glyph glyph-name="afii10031" unicode="&#x41d;" horiz-adv-x="1597" 
d="M72 0v264h78q37 0 54 13t17 67v746q0 53 -17 66t-54 13h-78v265h657v-265h-10q-43 0 -56.5 -16t-13.5 -66v-186h297v186q0 45 -11.5 63.5t-60.5 18.5h-10v265h662v-265h-78q-36 0 -55 -13.5t-19 -65.5v-746q0 -53 19 -66.5t55 -13.5h78v-264h-662v264h10q38 0 55 13
t17 67v270h-297v-270q0 -37 7.5 -54.5t22 -21.5t44.5 -4h8v-264h-659z" />
    <glyph glyph-name="afii10032" unicode="&#xce;" horiz-adv-x="1470" 
d="M735 1468q188 0 316 -74.5t206 -185.5q46 -63 76 -135t43.5 -137t18 -115.5t4.5 -103.5q0 -67 -7.5 -134.5t-22.5 -129.5t-41.5 -125t-61.5 -111q-179 -252 -531 -252q-194 0 -325 72.5t-207 179.5q-65 92 -98 219.5t-33 280.5q3 92 10 155t38 155t93 181q42 59 103 115
t169 100.5t250 44.5zM735 1182q-61 0 -98.5 -32t-57 -89.5t-25 -122t-5.5 -154.5v-137q0 -111 10.5 -194.5t52 -142t123.5 -58.5q120 0 153.5 107.5t33.5 287.5v137q0 177 -33.5 287.5t-153.5 110.5z" />
    <glyph glyph-name="afii10032" unicode="&#x41e;" horiz-adv-x="1470" 
d="M735 1468q188 0 316 -74.5t206 -185.5q46 -63 76 -135t43.5 -137t18 -115.5t4.5 -103.5q0 -67 -7.5 -134.5t-22.5 -129.5t-41.5 -125t-61.5 -111q-179 -252 -531 -252q-194 0 -325 72.5t-207 179.5q-65 92 -98 219.5t-33 280.5q3 92 10 155t38 155t93 181q42 59 103 115
t169 100.5t250 44.5zM735 1182q-61 0 -98.5 -32t-57 -89.5t-25 -122t-5.5 -154.5v-137q0 -111 10.5 -194.5t52 -142t123.5 -58.5q120 0 153.5 107.5t33.5 287.5v137q0 177 -33.5 287.5t-153.5 110.5z" />
    <glyph glyph-name="afii10033" unicode="&#xcf;" horiz-adv-x="1593" 
d="M72 1434h1450v-265h-78q-37 0 -54.5 -13t-17.5 -66v-744q0 -54 17.5 -68t54.5 -14h78v-264h-662v264h10q40 0 57 13.5t17 66.5v801h-295v-801q0 -54 17.5 -67t54.5 -13h10v-264h-659v264h78q37 0 54 13t17 67v746q0 53 -17 66t-54 13h-78v265z" />
    <glyph glyph-name="afii10033" unicode="&#x41f;" horiz-adv-x="1593" 
d="M72 1434h1450v-265h-78q-37 0 -54.5 -13t-17.5 -66v-744q0 -54 17.5 -68t54.5 -14h78v-264h-662v264h10q40 0 57 13.5t17 66.5v801h-295v-801q0 -54 17.5 -67t54.5 -13h10v-264h-659v264h78q37 0 54 13t17 67v746q0 53 -17 66t-54 13h-78v265z" />
    <glyph glyph-name="afii10034" unicode="&#xd0;" horiz-adv-x="1358" 
d="M649 514v-170q0 -36 9.5 -54t24 -22t40.5 -4h76v-264h-727v264h78q37 0 54 13t17 67v746q0 53 -17 66t-54 13h-78v265h546q228 0 384.5 -38.5t244.5 -145.5t88 -300q0 -243 -153 -340.5t-439 -97.5q-61 0 -94 2zM649 1145v-342q110 0 166.5 39t56.5 135q0 60 -24 97.5
t-73 54t-126 16.5z" />
    <glyph glyph-name="afii10034" unicode="&#x420;" horiz-adv-x="1358" 
d="M649 514v-170q0 -36 9.5 -54t24 -22t40.5 -4h76v-264h-727v264h78q37 0 54 13t17 67v746q0 53 -17 66t-54 13h-78v265h546q228 0 384.5 -38.5t244.5 -145.5t88 -300q0 -243 -153 -340.5t-439 -97.5q-61 0 -94 2zM649 1145v-342q110 0 166.5 39t56.5 135q0 60 -24 97.5
t-73 54t-126 16.5z" />
    <glyph glyph-name="afii10035" unicode="&#xd1;" horiz-adv-x="1407" 
d="M1350 885h-486q-7 156 -37.5 226.5t-132.5 70.5q-61 0 -97 -27t-54.5 -75t-24.5 -107t-6 -139v-111q1 -22 2 -47t2 -101q1 -140 23 -212.5t58.5 -91.5t100.5 -19q29 0 59 8.5t60 39t50 98t20 180.5h485q-4 -173 -88 -313.5t-236 -220t-348 -79.5q-150 0 -299 59.5
t-257.5 226.5t-108.5 466q0 212 79.5 383t229 269.5t348.5 98.5q156 0 279 -47.5t206 -129t127 -186t46 -220.5z" />
    <glyph glyph-name="afii10035" unicode="&#x421;" horiz-adv-x="1407" 
d="M1350 885h-486q-7 156 -37.5 226.5t-132.5 70.5q-61 0 -97 -27t-54.5 -75t-24.5 -107t-6 -139v-111q1 -22 2 -47t2 -101q1 -140 23 -212.5t58.5 -91.5t100.5 -19q29 0 59 8.5t60 39t50 98t20 180.5h485q-4 -173 -88 -313.5t-236 -220t-348 -79.5q-150 0 -299 59.5
t-257.5 226.5t-108.5 466q0 212 79.5 383t229 269.5t348.5 98.5q156 0 279 -47.5t206 -129t127 -186t46 -220.5z" />
    <glyph glyph-name="afii10036" unicode="&#xd2;" horiz-adv-x="1335" 
d="M35 1434h1265v-482h-239q-7 36 -11 59t-12 64q-6 42 -24.5 56t-85.5 14h-45v-803q0 -54 17 -67t54 -13h78v-264h-729v264h78q39 0 56.5 13t17.5 67v803h-45q-55 0 -76.5 -10t-32.5 -48t-25 -135h-241v482z" />
    <glyph glyph-name="afii10036" unicode="&#x422;" horiz-adv-x="1335" 
d="M35 1434h1265v-482h-239q-7 36 -11 59t-12 64q-6 42 -24.5 56t-85.5 14h-45v-803q0 -54 17 -67t54 -13h78v-264h-729v264h78q39 0 56.5 13t17.5 67v803h-45q-55 0 -76.5 -10t-32.5 -48t-25 -135h-241v482z" />
    <glyph glyph-name="afii10037" unicode="&#xd3;" horiz-adv-x="1417" 
d="M23 1434h700v-265h-25q-45 0 -45 -34q0 -11 2.5 -19t9 -21t11.5 -22l147 -285l97 259q26 72 26 90q0 32 -61 32h-25v265h535v-265q-82 -1 -106.5 -18.5t-39.5 -69.5q-6 -18 -10 -32q-3 -7 -8 -20.5t-10 -24.5l-154 -414q-81 -220 -149 -348t-130.5 -186t-126.5 -74.5
t-163 -16.5q-73 0 -131 8t-117 27l-2 373q77 -60 155 -60q56 0 88.5 19.5t51.5 64.5l-330 629q-44 89 -65 116t-80 27h-45v265z" />
    <glyph glyph-name="afii10037" unicode="&#x423;" horiz-adv-x="1417" 
d="M23 1434h700v-265h-25q-45 0 -45 -34q0 -11 2.5 -19t9 -21t11.5 -22l147 -285l97 259q26 72 26 90q0 32 -61 32h-25v265h535v-265q-82 -1 -106.5 -18.5t-39.5 -69.5q-6 -18 -10 -32q-3 -7 -8 -20.5t-10 -24.5l-154 -414q-81 -220 -149 -348t-130.5 -186t-126.5 -74.5
t-163 -16.5q-73 0 -131 8t-117 27l-2 373q77 -60 155 -60q56 0 88.5 19.5t51.5 64.5l-330 629q-44 89 -65 116t-80 27h-45v265z" />
    <glyph glyph-name="afii10038" unicode="&#xd4;" horiz-adv-x="1692" 
d="M522 1495h647v-264h-32q-67 0 -81 -7t-14 -34v-27h107q182 0 345 -90.5t163 -343.5q0 -108 -43.5 -185.5t-125 -124t-192 -67.5t-254.5 -24v-25q0 -39 41 -39h21h67v-264h-651v264h70q41 0 51 8.5t10 30.5v25q-291 3 -453.5 96t-162.5 305q0 138 54 225t134 132t164 61
t158 16h106v27q0 20 -4.5 27.5t-25.5 10.5t-66 3h-33v264zM1042 911v-331h58q82 0 116.5 43t34.5 106q0 107 -48.5 144.5t-108.5 37.5h-52zM651 911h-53q-37 0 -71.5 -13.5t-59.5 -53.5t-25 -115q0 -73 41 -111t109 -38h59v331z" />
    <glyph glyph-name="afii10038" unicode="&#x424;" horiz-adv-x="1692" 
d="M522 1495h647v-264h-32q-67 0 -81 -7t-14 -34v-27h107q182 0 345 -90.5t163 -343.5q0 -108 -43.5 -185.5t-125 -124t-192 -67.5t-254.5 -24v-25q0 -39 41 -39h21h67v-264h-651v264h70q41 0 51 8.5t10 30.5v25q-291 3 -453.5 96t-162.5 305q0 138 54 225t134 132t164 61
t158 16h106v27q0 20 -4.5 27.5t-25.5 10.5t-66 3h-33v264zM1042 911v-331h58q82 0 116.5 43t34.5 106q0 107 -48.5 144.5t-108.5 37.5h-52zM651 911h-53q-37 0 -71.5 -13.5t-59.5 -53.5t-25 -115q0 -73 41 -111t109 -38h59v331z" />
    <glyph glyph-name="afii10039" unicode="&#xd5;" horiz-adv-x="1548" 
d="M741 1434v-265h-24q-12 0 -22.5 -6.5t-10.5 -23.5q0 -14 18 -39l82 -125h15l86 129q24 40 24 47q0 18 -22 18h-27v265h555v-265h-55q-46 0 -75 -31t-89 -118l-149 -225l256 -394l43.5 -67.5t43 -47t56.5 -22.5h55v-264h-721v264q51 0 51 33q0 7 -8.5 25.5t-17.5 31.5
l-82 125h-12l-95 -141q-18 -18 -18 -47q0 -27 47 -27v-264h-596v264h55q46 0 76 16t50 42t61 88l174 264l-242 370q-57 90 -77.5 107.5t-59.5 17.5h-39v265h694z" />
    <glyph glyph-name="afii10039" unicode="&#x425;" horiz-adv-x="1548" 
d="M741 1434v-265h-24q-12 0 -22.5 -6.5t-10.5 -23.5q0 -14 18 -39l82 -125h15l86 129q24 40 24 47q0 18 -22 18h-27v265h555v-265h-55q-46 0 -75 -31t-89 -118l-149 -225l256 -394l43.5 -67.5t43 -47t56.5 -22.5h55v-264h-721v264q51 0 51 33q0 7 -8.5 25.5t-17.5 31.5
l-82 125h-12l-95 -141q-18 -18 -18 -47q0 -27 47 -27v-264h-596v264h55q46 0 76 16t50 42t61 88l174 264l-242 370q-57 90 -77.5 107.5t-59.5 17.5h-39v265h694z" />
    <glyph glyph-name="afii10040" unicode="&#xd6;" horiz-adv-x="1606" 
d="M72 1434h659v-265h-10q-49 0 -60.5 -18.5t-11.5 -63.5v-798h295v798q0 50 -13 66t-61 16h-10v265h662v-265h-78q-37 0 -54.5 -13t-17.5 -66v-744q0 -44 12 -63t60 -19h90v-600h-264l-21 156q-5 35 -7.5 46.5t-6.5 49.5q-6 53 -24.5 68.5t-86.5 15.5h-1052v264h78
q37 0 54 13t17 67v746q0 53 -17 66t-54 13h-78v265z" />
    <glyph glyph-name="afii10040" unicode="&#x426;" horiz-adv-x="1606" 
d="M72 1434h659v-265h-10q-49 0 -60.5 -18.5t-11.5 -63.5v-798h295v798q0 50 -13 66t-61 16h-10v265h662v-265h-78q-37 0 -54.5 -13t-17.5 -66v-744q0 -44 12 -63t60 -19h90v-600h-264l-21 156q-5 35 -7.5 46.5t-6.5 49.5q-6 53 -24.5 68.5t-86.5 15.5h-1052v264h78
q37 0 54 13t17 67v746q0 53 -17 66t-54 13h-78v265z" />
    <glyph glyph-name="afii10041" unicode="&#xd7;" horiz-adv-x="1532" 
d="M731 0v264h78q39 0 56.5 13t17.5 67v219q-91 -12 -148 -12h-98q-121 2 -220.5 26.5t-170 99t-70.5 220.5v197q0 38 -12 56.5t-60 18.5h-57v265h645v-265h-16q-48 0 -60 -16t-12 -66v-114q0 -129 176 -129q50 0 103 6v237q0 41 -9 61.5t-49 20.5h-20v265h655v-265h-78
q-35 0 -54 -13.5t-19 -65.5v-746q0 -53 19 -66.5t54 -13.5h78v-264h-729z" />
    <glyph glyph-name="afii10041" unicode="&#x427;" horiz-adv-x="1532" 
d="M731 0v264h78q39 0 56.5 13t17.5 67v219q-91 -12 -148 -12h-98q-121 2 -220.5 26.5t-170 99t-70.5 220.5v197q0 38 -12 56.5t-60 18.5h-57v265h645v-265h-16q-48 0 -60 -16t-12 -66v-114q0 -129 176 -129q50 0 103 6v237q0 41 -9 61.5t-49 20.5h-20v265h655v-265h-78
q-35 0 -54 -13.5t-19 -65.5v-746q0 -53 19 -66.5t54 -13.5h78v-264h-729z" />
    <glyph glyph-name="afii10042" unicode="&#xd8;" horiz-adv-x="2165" 
d="M72 0v264h59q38 0 55 13t17 67v743q0 45 -11.5 63.5t-60.5 18.5h-59v265h635v-265h-5q-47 0 -59 -16t-12 -66v-798h237v798q0 45 -11.5 63.5t-59.5 18.5h-4v265h579v-265h-6q-44 0 -57 -18.5t-13 -63.5v-798h236v798q0 48 -12.5 65t-59.5 17h-4v265h637v-265h-59
q-47 0 -60.5 -16t-13.5 -66v-743q0 -53 17 -66.5t57 -13.5h59v-264h-2021z" />
    <glyph glyph-name="afii10042" unicode="&#x428;" horiz-adv-x="2165" 
d="M72 0v264h59q38 0 55 13t17 67v743q0 45 -11.5 63.5t-60.5 18.5h-59v265h635v-265h-5q-47 0 -59 -16t-12 -66v-798h237v798q0 45 -11.5 63.5t-59.5 18.5h-4v265h579v-265h-6q-44 0 -57 -18.5t-13 -63.5v-798h236v798q0 48 -12.5 65t-59.5 17h-4v265h637v-265h-59
q-47 0 -60.5 -16t-13.5 -66v-743q0 -53 17 -66.5t57 -13.5h59v-264h-2021z" />
    <glyph glyph-name="afii10043" unicode="&#xd9;" horiz-adv-x="2195" 
d="M2093 1434v-265h-59q-47 0 -60.5 -16t-13.5 -66v-741q0 -12 2 -18t2 -19v-2q0 -3 2 -7.5t4 -12.5q8 -23 64 -23h90v-600h-223l-29 174q-5 30 -10 80t-23.5 66t-69.5 16h-1697v264h59q38 0 55 13t17 67v743q0 45 -11.5 63.5t-60.5 18.5h-59v265h635v-265h-5q-47 0 -59 -16
t-12 -66v-798h237v798q0 45 -11.5 63.5t-59.5 18.5h-4v265h579v-265h-6q-44 0 -57 -18.5t-13 -63.5v-798h236v798q0 48 -12.5 65t-59.5 17h-4v265h637z" />
    <glyph glyph-name="afii10043" unicode="&#x429;" horiz-adv-x="2195" 
d="M2093 1434v-265h-59q-47 0 -60.5 -16t-13.5 -66v-741q0 -12 2 -18t2 -19v-2q0 -3 2 -7.5t4 -12.5q8 -23 64 -23h90v-600h-223l-29 174q-5 30 -10 80t-23.5 66t-69.5 16h-1697v264h59q38 0 55 13t17 67v743q0 45 -11.5 63.5t-60.5 18.5h-59v265h635v-265h-5q-47 0 -59 -16
t-12 -66v-798h237v798q0 45 -11.5 63.5t-59.5 18.5h-4v265h579v-265h-6q-44 0 -57 -18.5t-13 -63.5v-798h236v798q0 48 -12.5 65t-59.5 17h-4v265h637z" />
    <glyph glyph-name="afii10044" unicode="&#xda;" horiz-adv-x="1599" 
d="M297 0v264h57q38 0 55 13t17 67v780h-45q-50 0 -72.5 -9t-31.5 -28.5t-15 -65t-14 -89.5h-213v502h969v-265h-76q-48 0 -60 -16.5t-12 -50.5v-15q0 -13 -0.5 -18.5t-1.5 -13.5v-160q19 1 34 1.5t40 0.5q201 0 341.5 -40.5t218 -141.5t77.5 -273q0 -246 -183.5 -344
t-486.5 -98h-598zM854 606v-317h61q172 0 172 153q0 62 -24 98t-73.5 51t-135.5 15z" />
    <glyph glyph-name="afii10044" unicode="&#x42a;" horiz-adv-x="1599" 
d="M297 0v264h57q38 0 55 13t17 67v780h-45q-50 0 -72.5 -9t-31.5 -28.5t-15 -65t-14 -89.5h-213v502h969v-265h-76q-48 0 -60 -16.5t-12 -50.5v-15q0 -13 -0.5 -18.5t-1.5 -13.5v-160q19 1 34 1.5t40 0.5q201 0 341.5 -40.5t218 -141.5t77.5 -273q0 -246 -183.5 -344
t-486.5 -98h-598zM854 606v-317h61q172 0 172 153q0 62 -24 98t-73.5 51t-135.5 15z" />
    <glyph glyph-name="afii10045" unicode="&#xdb;" horiz-adv-x="2204" 
d="M799 1434v-265h-76q-39 0 -56.5 -13t-17.5 -66v-195h51q165 0 301 -23.5t247.5 -124t111.5 -307.5q0 -440 -670 -440h-618v264h78q37 0 54 13t17 67v746q0 53 -17 66t-54 13h-78v265h727zM649 606v-317h62q104 0 138 48t34 105q0 91 -46 128.5t-147 37.5
q-13 0 -21.5 -0.5t-19.5 -1.5zM2132 1434v-265h-78q-39 0 -56.5 -13t-17.5 -66v-746q0 -36 9.5 -54t24 -22t40.5 -4h78v-264h-729v264h78q37 0 54 13t17 67v746q0 53 -17 66t-54 13h-78v265h729z" />
    <glyph glyph-name="afii10045" unicode="&#x42b;" horiz-adv-x="2204" 
d="M799 1434v-265h-76q-39 0 -56.5 -13t-17.5 -66v-195h51q165 0 301 -23.5t247.5 -124t111.5 -307.5q0 -440 -670 -440h-618v264h78q37 0 54 13t17 67v746q0 53 -17 66t-54 13h-78v265h727zM649 606v-317h62q104 0 138 48t34 105q0 91 -46 128.5t-147 37.5
q-13 0 -21.5 -0.5t-19.5 -1.5zM2132 1434v-265h-78q-39 0 -56.5 -13t-17.5 -66v-746q0 -36 9.5 -54t24 -22t40.5 -4h78v-264h-729v264h78q37 0 54 13t17 67v746q0 53 -17 66t-54 13h-78v265h729z" />
    <glyph glyph-name="afii10046" unicode="&#xdc;" horiz-adv-x="1395" 
d="M799 1434v-265h-76q-39 0 -56.5 -13t-17.5 -66v-195h51q165 0 301 -23.5t247.5 -124t111.5 -307.5q0 -440 -670 -440h-618v264h78q37 0 54 13t17 67v746q0 53 -17 66t-54 13h-78v265h727zM649 606v-317h62q104 0 138 48t34 105q0 91 -46 128.5t-147 37.5
q-13 0 -21.5 -0.5t-19.5 -1.5z" />
    <glyph glyph-name="afii10046" unicode="&#x42c;" horiz-adv-x="1395" 
d="M799 1434v-265h-76q-39 0 -56.5 -13t-17.5 -66v-195h51q165 0 301 -23.5t247.5 -124t111.5 -307.5q0 -440 -670 -440h-618v264h78q37 0 54 13t17 67v746q0 53 -17 66t-54 13h-78v265h727zM649 606v-317h62q104 0 138 48t34 105q0 91 -46 128.5t-147 37.5
q-13 0 -21.5 -0.5t-19.5 -1.5z" />
    <glyph glyph-name="afii10047" unicode="&#xdd;" horiz-adv-x="1378" 
d="M487 573v-69q0 -152 59 -202t136 -50q82 0 122.5 46.5t51 102.5t10.5 121v45h-288v312h288v73q0 130 -44 180t-128 50q-180 0 -188 -252h-453q8 155 84.5 276.5t219 191.5t341.5 70q218 0 352 -85.5t196.5 -211t79.5 -237.5t17 -217q0 -124 -32.5 -257.5t-106.5 -240.5
q-101 -150 -239.5 -202t-262.5 -52q-171 0 -299 53.5t-206.5 142t-117.5 195.5t-44 217h452z" />
    <glyph glyph-name="afii10047" unicode="&#x42d;" horiz-adv-x="1378" 
d="M487 573v-69q0 -152 59 -202t136 -50q82 0 122.5 46.5t51 102.5t10.5 121v45h-288v312h288v73q0 130 -44 180t-128 50q-180 0 -188 -252h-453q8 155 84.5 276.5t219 191.5t341.5 70q218 0 352 -85.5t196.5 -211t79.5 -237.5t17 -217q0 -124 -32.5 -257.5t-106.5 -240.5
q-101 -150 -239.5 -202t-262.5 -52q-171 0 -299 53.5t-206.5 142t-117.5 195.5t-44 217h452z" />
    <glyph glyph-name="afii10048" unicode="&#xde;" horiz-adv-x="2228" 
d="M649 913h187q21 103 68 200.5t126 177.5t194.5 128.5t262.5 48.5q111 0 202 -27.5t151.5 -67t104.5 -84.5t68 -81q36 -48 64.5 -110t45 -123t25.5 -130.5t9 -127.5q0 -315 -134 -500q-78 -108 -208.5 -180t-327.5 -72q-138 0 -282.5 51t-252.5 201q-56 79 -89.5 184
t-41.5 201h-172v-258q0 -37 7.5 -54.5t21.5 -21.5t43 -4h59v-264h-708v264h78q37 0 54 13t17 67v746q0 53 -17 66t-54 13h-78v265h708v-265h-59q-48 0 -60 -16t-12 -66v-174zM1487 1182q-79 0 -120.5 -54t-54 -139t-12.5 -205v-137q0 -111 11 -194.5t52.5 -142t123.5 -58.5
q83 0 124 58t51.5 141t10.5 196v137q0 181 -33 289.5t-153 108.5z" />
    <glyph glyph-name="afii10048" unicode="&#x42e;" horiz-adv-x="2228" 
d="M649 913h187q21 103 68 200.5t126 177.5t194.5 128.5t262.5 48.5q111 0 202 -27.5t151.5 -67t104.5 -84.5t68 -81q36 -48 64.5 -110t45 -123t25.5 -130.5t9 -127.5q0 -315 -134 -500q-78 -108 -208.5 -180t-327.5 -72q-138 0 -282.5 51t-252.5 201q-56 79 -89.5 184
t-41.5 201h-172v-258q0 -37 7.5 -54.5t21.5 -21.5t43 -4h59v-264h-708v264h78q37 0 54 13t17 67v746q0 53 -17 66t-54 13h-78v265h708v-265h-59q-48 0 -60 -16t-12 -66v-174zM1487 1182q-79 0 -120.5 -54t-54 -139t-12.5 -205v-137q0 -111 11 -194.5t52.5 -142t123.5 -58.5
q83 0 124 58t51.5 141t10.5 196v137q0 181 -33 289.5t-153 108.5z" />
    <glyph glyph-name="afii10049" unicode="&#xdf;" horiz-adv-x="1432" 
d="M1360 1434v-265h-78q-39 0 -56.5 -13t-17.5 -66v-746q0 -36 9.5 -54t24 -22t40.5 -4h78v-264h-668l2 264h17q44 0 56.5 17.5t12.5 62.5v209h-14q-43 0 -65 -10t-44.5 -51.5t-50.5 -137.5q-30 -104 -57 -171.5t-67.5 -116.5t-102.5 -75t-154 -26q-91 0 -153 35l2 418
q6 -1 15.5 -3.5t26.5 -5.5t29 -3q39 0 55.5 19t24.5 54q14 53 33 84.5t77.5 61.5t176.5 51v18q-102 3 -190.5 41.5t-143.5 118t-55 197.5q0 130 61.5 211t155 116.5t195 45.5t221.5 10h49h555zM780 1147h-35q-176 0 -176 -162q0 -82 52.5 -113.5t158.5 -31.5v307z" />
    <glyph glyph-name="afii10049" unicode="&#x42f;" horiz-adv-x="1432" 
d="M1360 1434v-265h-78q-39 0 -56.5 -13t-17.5 -66v-746q0 -36 9.5 -54t24 -22t40.5 -4h78v-264h-668l2 264h17q44 0 56.5 17.5t12.5 62.5v209h-14q-43 0 -65 -10t-44.5 -51.5t-50.5 -137.5q-30 -104 -57 -171.5t-67.5 -116.5t-102.5 -75t-154 -26q-91 0 -153 35l2 418
q6 -1 15.5 -3.5t26.5 -5.5t29 -3q39 0 55.5 19t24.5 54q14 53 33 84.5t77.5 61.5t176.5 51v18q-102 3 -190.5 41.5t-143.5 118t-55 197.5q0 130 61.5 211t155 116.5t195 45.5t221.5 10h49h555zM780 1147h-35q-176 0 -176 -162q0 -82 52.5 -113.5t158.5 -31.5v307z" />
    <glyph glyph-name="afii10065" unicode="&#xe0;" horiz-adv-x="1210" 
d="M1149 258v-258q-82 -23 -172 -23q-201 0 -223 117l-19 -2q-71 -63 -145 -89t-166 -26q-182 0 -267 98t-85 234q0 204 151 279.5t424 75.5h53v108q0 34 -24.5 66t-106.5 32q-59 0 -93 -30t-34 -80h-323q0 348 530 348q146 0 233.5 -36t127 -95t49.5 -122.5t10 -160.5v-362
q0 -40 16.5 -57t63.5 -17zM700 276v201q-104 0 -158.5 -44.5t-54.5 -108.5q0 -44 27 -76.5t82 -32.5q41 0 72.5 17t31.5 44z" />
    <glyph glyph-name="afii10065" unicode="&#x430;" horiz-adv-x="1210" 
d="M1149 258v-258q-82 -23 -172 -23q-201 0 -223 117l-19 -2q-71 -63 -145 -89t-166 -26q-182 0 -267 98t-85 234q0 204 151 279.5t424 75.5h53v108q0 34 -24.5 66t-106.5 32q-59 0 -93 -30t-34 -80h-323q0 348 530 348q146 0 233.5 -36t127 -95t49.5 -122.5t10 -160.5v-362
q0 -40 16.5 -57t63.5 -17zM700 276v201q-104 0 -158.5 -44.5t-54.5 -108.5q0 -44 27 -76.5t82 -32.5q41 0 72.5 17t31.5 44z" />
    <glyph glyph-name="afii10066" unicode="&#xe1;" horiz-adv-x="1190" 
d="M932 1640l190 -2q2 -16 2 -49q0 -108 -54 -172t-147.5 -100.5t-254.5 -77.5q-90 -23 -163.5 -51.5t-130 -84.5t-59.5 -140l15 -11q45 80 131 118t180 38q122 0 215 -41.5t157.5 -117t97 -175.5t32.5 -211q0 -169 -63.5 -301.5t-186.5 -208.5t-293 -76q-193 0 -317 85.5
t-180 237.5t-56 351q0 232 53.5 391t146.5 256t204.5 151t263.5 99q36 12 88.5 26t80.5 27t48 39zM596 870q-79 0 -100 -74t-21 -218v-43q0 -149 21.5 -233.5t99.5 -84.5q55 0 81 52.5t32 125t6 183.5q0 93 -6.5 151.5t-32.5 99.5t-80 41z" />
    <glyph glyph-name="afii10066" unicode="&#x431;" horiz-adv-x="1190" 
d="M932 1640l190 -2q2 -16 2 -49q0 -108 -54 -172t-147.5 -100.5t-254.5 -77.5q-90 -23 -163.5 -51.5t-130 -84.5t-59.5 -140l15 -11q45 80 131 118t180 38q122 0 215 -41.5t157.5 -117t97 -175.5t32.5 -211q0 -169 -63.5 -301.5t-186.5 -208.5t-293 -76q-193 0 -317 85.5
t-180 237.5t-56 351q0 232 53.5 391t146.5 256t204.5 151t263.5 99q36 12 88.5 26t80.5 27t48 39zM596 870q-79 0 -100 -74t-21 -218v-43q0 -149 21.5 -233.5t99.5 -84.5q55 0 81 52.5t32 125t6 183.5q0 93 -6.5 151.5t-32.5 99.5t-80 41z" />
    <glyph glyph-name="afii10067" unicode="&#xe2;" horiz-adv-x="1239" 
d="M96 1085h545q161 0 262 -12.5t172.5 -69.5t71.5 -176q0 -101 -61.5 -164t-182.5 -79q-17 -1 -30 -3.5t-17 -2.5v-15q22 -3 26 -3.5t36 -6.5q97 -12 173 -61.5t76 -180.5q0 -104 -40 -168.5t-108.5 -95t-148.5 -39t-190 -8.5h-584v215h39q36 0 51 15.5t15 50.5v524
q0 65 -66 65h-39v215zM569 655h33q66 0 106 18.5t40 76.5q0 60 -36 78t-98 18h-45v-191zM569 457v-217h39q71 0 112.5 19t41.5 85q0 44 -29.5 78.5t-101.5 34.5h-62z" />
    <glyph glyph-name="afii10067" unicode="&#x432;" horiz-adv-x="1239" 
d="M96 1085h545q161 0 262 -12.5t172.5 -69.5t71.5 -176q0 -101 -61.5 -164t-182.5 -79q-17 -1 -30 -3.5t-17 -2.5v-15q22 -3 26 -3.5t36 -6.5q97 -12 173 -61.5t76 -180.5q0 -104 -40 -168.5t-108.5 -95t-148.5 -39t-190 -8.5h-584v215h39q36 0 51 15.5t15 50.5v524
q0 65 -66 65h-39v215zM569 655h33q66 0 106 18.5t40 76.5q0 60 -36 78t-98 18h-45v-191zM569 457v-217h39q71 0 112.5 19t41.5 85q0 44 -29.5 78.5t-101.5 34.5h-62z" />
    <glyph glyph-name="afii10068" unicode="&#xe3;" horiz-adv-x="1026" 
d="M96 1085h871l12 -387h-217l-8 52q-10 59 -23 77.5t-84 18.5h-80v-565q0 -42 16 -54t50 -12h57v-215h-594v215h37q34 0 50 12t16 54v524q0 36 -12 50.5t-54 14.5h-37v215z" />
    <glyph glyph-name="afii10068" unicode="&#x433;" horiz-adv-x="1026" 
d="M96 1085h871l12 -387h-217l-8 52q-10 59 -23 77.5t-84 18.5h-80v-565q0 -42 16 -54t50 -12h57v-215h-594v215h37q34 0 50 12t16 54v524q0 36 -12 50.5t-54 14.5h-37v215z" />
    <glyph glyph-name="afii10069" unicode="&#xe4;" horiz-adv-x="1391" 
d="M147 1085h1117v-215h-37q-33 0 -49.5 -10.5t-16.5 -54.5v-502q0 -42 15 -52.5t51 -10.5h67v-519h-215l-39 173q-16 69 -34.5 87.5t-61.5 18.5h-571q-41 0 -63.5 -16.5t-33.5 -69.5l-36 -193h-217v519q57 0 92 23t65 69q56 83 84 216t35 265q0 30 -18.5 43.5t-47.5 13.5
h-86v215zM793 846h-191q-2 -104 -20 -213l-3.5 -27t-5.5 -35q-4 -33 -10.5 -69t-18.5 -83t-28.5 -90t-40.5 -89h318v606z" />
    <glyph glyph-name="afii10069" unicode="&#x434;" horiz-adv-x="1391" 
d="M147 1085h1117v-215h-37q-33 0 -49.5 -10.5t-16.5 -54.5v-502q0 -42 15 -52.5t51 -10.5h67v-519h-215l-39 173q-16 69 -34.5 87.5t-61.5 18.5h-571q-41 0 -63.5 -16.5t-33.5 -69.5l-36 -193h-217v519q57 0 92 23t65 69q56 83 84 216t35 265q0 30 -18.5 43.5t-47.5 13.5
h-86v215zM793 846h-191q-2 -104 -20 -213l-3.5 -27t-5.5 -35q-4 -33 -10.5 -69t-18.5 -83t-28.5 -90t-40.5 -89h318v606z" />
    <glyph glyph-name="afii10070" unicode="&#xe5;" horiz-adv-x="1159" 
d="M750 334h348q-40 -142 -161 -249.5t-347 -107.5q-92 0 -216 36.5t-214 152.5q-113 148 -113 369q0 103 32.5 202.5t88.5 171.5q84 109 198.5 154t235.5 45q155 0 269.5 -77t175 -222t65.5 -344h-643v-51q0 -73 13 -115t44.5 -62t87.5 -20q116 0 136 117zM469 680h281
q0 98 -38.5 144t-97.5 46q-61 0 -103 -49t-42 -141z" />
    <glyph glyph-name="afii10070" unicode="&#x435;" horiz-adv-x="1159" 
d="M750 334h348q-40 -142 -161 -249.5t-347 -107.5q-92 0 -216 36.5t-214 152.5q-113 148 -113 369q0 103 32.5 202.5t88.5 171.5q84 109 198.5 154t235.5 45q155 0 269.5 -77t175 -222t65.5 -344h-643v-51q0 -73 13 -115t44.5 -62t87.5 -20q116 0 136 117zM469 680h281
q0 98 -38.5 144t-97.5 46q-61 0 -103 -49t-42 -141z" />
    <glyph glyph-name="afii10072" unicode="&#xe6;" horiz-adv-x="1810" 
d="M1090 682h36q31 0 45.5 8.5t32 45.5t51.5 130q29 75 56 122.5t84.5 83.5t154.5 36q100 0 189 -21v-258q-53 -9 -80 -32t-60 -70q-36 -56 -80.5 -93t-129.5 -50v-21q60 0 106.5 -19.5t77.5 -55.5t43 -91q12 -54 26.5 -69t47.5 -15q28 0 49 9v-312q-82 -33 -170 -33
q-77 0 -135.5 23.5t-110.5 96t-92 206.5q-22 80 -42.5 109.5t-60.5 29.5h-38v-184q0 -40 17.5 -51.5t47.5 -11.5h14v-218h-528v218h14q30 0 48 11t18 52v184h-39q-39 0 -59.5 -29.5t-42.5 -109.5q-40 -134 -92 -206.5t-110.5 -96t-135.5 -23.5q-89 0 -170 33v312
q20 -9 49 -9q34 0 48 13t26 71q12 54 43 91t77.5 56t106.5 19v21q-86 13 -129 49t-82 94q-30 45 -57.5 69t-81.5 33v258q88 21 188 21q94 0 152.5 -36t84.5 -80.5t54 -114.5q8 -25 27 -68q12 -32 18 -45q21 -47 39 -64.5t49 -17.5h37v123q0 32 -12.5 48.5t-53.5 16.5h-14
v215h528v-215h-14q-40 0 -52.5 -17.5t-12.5 -47.5v-123z" />
    <glyph glyph-name="afii10072" unicode="&#x436;" horiz-adv-x="1810" 
d="M1090 682h36q31 0 45.5 8.5t32 45.5t51.5 130q29 75 56 122.5t84.5 83.5t154.5 36q100 0 189 -21v-258q-53 -9 -80 -32t-60 -70q-36 -56 -80.5 -93t-129.5 -50v-21q60 0 106.5 -19.5t77.5 -55.5t43 -91q12 -54 26.5 -69t47.5 -15q28 0 49 9v-312q-82 -33 -170 -33
q-77 0 -135.5 23.5t-110.5 96t-92 206.5q-22 80 -42.5 109.5t-60.5 29.5h-38v-184q0 -40 17.5 -51.5t47.5 -11.5h14v-218h-528v218h14q30 0 48 11t18 52v184h-39q-39 0 -59.5 -29.5t-42.5 -109.5q-40 -134 -92 -206.5t-110.5 -96t-135.5 -23.5q-89 0 -170 33v312
q20 -9 49 -9q34 0 48 13t26 71q12 54 43 91t77.5 56t106.5 19v21q-86 13 -129 49t-82 94q-30 45 -57.5 69t-81.5 33v258q88 21 188 21q94 0 152.5 -36t84.5 -80.5t54 -114.5q8 -25 27 -68q12 -32 18 -45q21 -47 39 -64.5t49 -17.5h37v123q0 32 -12.5 48.5t-53.5 16.5h-14
v215h528v-215h-14q-40 0 -52.5 -17.5t-12.5 -47.5v-123z" />
    <glyph glyph-name="afii10073" unicode="&#xe7;" horiz-adv-x="1122" 
d="M506 420h-43v252h65q60 0 95.5 18.5t35.5 77.5q0 43 -23.5 72.5t-78.5 29.5q-70 0 -100 -38.5t-33 -112.5h-338q10 156 121 272.5t393 116.5q251 0 352 -89t101 -212q0 -66 -37 -116t-95.5 -77t-121.5 -32v-19q68 0 126.5 -22.5t97 -75t38.5 -135.5q0 -71 -39.5 -151.5
t-147.5 -141t-296 -60.5q-177 0 -284.5 52.5t-156.5 126t-62.5 141t-13.5 123.5h345v-37q0 -62 31 -114t106 -52q68 0 90 36t22 77q0 51 -37 70.5t-112 19.5z" />
    <glyph glyph-name="afii10073" unicode="&#x437;" horiz-adv-x="1122" 
d="M506 420h-43v252h65q60 0 95.5 18.5t35.5 77.5q0 43 -23.5 72.5t-78.5 29.5q-70 0 -100 -38.5t-33 -112.5h-338q10 156 121 272.5t393 116.5q251 0 352 -89t101 -212q0 -66 -37 -116t-95.5 -77t-121.5 -32v-19q68 0 126.5 -22.5t97 -75t38.5 -135.5q0 -71 -39.5 -151.5
t-147.5 -141t-296 -60.5q-177 0 -284.5 52.5t-156.5 126t-62.5 141t-13.5 123.5h345v-37q0 -62 31 -114t106 -52q68 0 90 36t22 77q0 51 -37 70.5t-112 19.5z" />
    <glyph glyph-name="afii10074" unicode="&#xe8;" horiz-adv-x="1374" 
d="M563 551h12l275 534h428v-215h-33q-33 0 -49 -10.5t-16 -54.5v-524q0 -42 14.5 -54t50.5 -12h33v-215h-547v215h19q36 0 48.5 13t12.5 53v264h-10l-281 -545h-424v215h35q26 0 40.5 8t19 22t4.5 36v524q0 35 -11.5 50t-52.5 15h-35v215h547v-215h-16q-33 0 -48.5 -12.5
t-15.5 -52.5v-254z" />
    <glyph glyph-name="afii10074" unicode="&#x438;" horiz-adv-x="1374" 
d="M563 551h12l275 534h428v-215h-33q-33 0 -49 -10.5t-16 -54.5v-524q0 -42 14.5 -54t50.5 -12h33v-215h-547v215h19q36 0 48.5 13t12.5 53v264h-10l-281 -545h-424v215h35q26 0 40.5 8t19 22t4.5 36v524q0 35 -11.5 50t-52.5 15h-35v215h547v-215h-16q-33 0 -48.5 -12.5
t-15.5 -52.5v-254z" />
    <glyph glyph-name="afii10075" unicode="&#xe9;" horiz-adv-x="1378" 
d="M565 551h13l272 534h430v-215h-35q-39 0 -51 -15.5t-12 -49.5v-524q0 -22 4.5 -36.5t18.5 -22t40 -7.5h35v-215h-547v215h17q34 0 48.5 11.5t14.5 54.5v264h-10l-283 -545h-422v215h33q36 0 51 11.5t15 54.5v524q0 44 -16.5 54.5t-49.5 10.5h-33v215h547v-215h-18
q-37 0 -49.5 -15t-12.5 -50v-254zM291 1526h303q7 -127 135 -127q124 0 129 127h303q-1 -100 -62 -180t-161 -125t-211 -45q-103 0 -204 42.5t-166 121.5t-66 186z" />
    <glyph glyph-name="afii10075" unicode="&#x439;" horiz-adv-x="1378" 
d="M565 551h13l272 534h430v-215h-35q-39 0 -51 -15.5t-12 -49.5v-524q0 -22 4.5 -36.5t18.5 -22t40 -7.5h35v-215h-547v215h17q34 0 48.5 11.5t14.5 54.5v264h-10l-283 -545h-422v215h33q36 0 51 11.5t15 54.5v524q0 44 -16.5 54.5t-49.5 10.5h-33v215h547v-215h-18
q-37 0 -49.5 -15t-12.5 -50v-254zM291 1526h303q7 -127 135 -127q124 0 129 127h303q-1 -100 -62 -180t-161 -125t-211 -45q-103 0 -204 42.5t-166 121.5t-66 186z" />
    <glyph glyph-name="afii10076" unicode="&#xea;" horiz-adv-x="1288" 
d="M567 682h47q21 0 35.5 10.5t24.5 29t24 54t23 62.5q32 86 50 122.5t53.5 71t99.5 55.5t159 21q46 0 134 -18v-261q-57 -11 -79 -30t-57 -68q-40 -59 -85 -96.5t-130 -50.5v-21q89 0 149.5 -43t78.5 -123q9 -40 17.5 -58t20 -22t35.5 -4q29 0 50 9v-312q-82 -33 -170 -33
q-115 0 -199 65t-139 261q-21 76 -41.5 107.5t-61.5 31.5h-39v-161q0 -42 16 -54t50 -12h14v-215h-551v215h37q33 0 49.5 12.5t16.5 53.5v524q0 32 -10.5 48.5t-55.5 16.5h-37v215h563v-215h-26q-35 0 -50.5 -12.5t-15.5 -52.5v-123z" />
    <glyph glyph-name="afii10076" unicode="&#x43a;" horiz-adv-x="1288" 
d="M567 682h47q21 0 35.5 10.5t24.5 29t24 54t23 62.5q32 86 50 122.5t53.5 71t99.5 55.5t159 21q46 0 134 -18v-261q-57 -11 -79 -30t-57 -68q-40 -59 -85 -96.5t-130 -50.5v-21q89 0 149.5 -43t78.5 -123q9 -40 17.5 -58t20 -22t35.5 -4q29 0 50 9v-312q-82 -33 -170 -33
q-115 0 -199 65t-139 261q-21 76 -41.5 107.5t-61.5 31.5h-39v-161q0 -42 16 -54t50 -12h14v-215h-551v215h37q33 0 49.5 12.5t16.5 53.5v524q0 32 -10.5 48.5t-55.5 16.5h-37v215h563v-215h-26q-35 0 -50.5 -12.5t-15.5 -52.5v-123z" />
    <glyph glyph-name="afii10077" unicode="&#xeb;" horiz-adv-x="1319" 
d="M156 1085h1067v-215h-37q-41 0 -53.5 -15t-12.5 -50v-524q0 -42 16 -54t50 -12h37v-215h-553v215h16q34 0 50 12t16 54v565h-181q-4 -67 -8 -219q-8 -323 -53 -441q-79 -209 -295 -209q-73 0 -143 33v312q49 -17 84 -17q57 0 81.5 43.5t31 122t14.5 307.5q0 64 -13 78
t-55 14h-59v215z" />
    <glyph glyph-name="afii10077" unicode="&#x43b;" horiz-adv-x="1319" 
d="M156 1085h1067v-215h-37q-41 0 -53.5 -15t-12.5 -50v-524q0 -42 16 -54t50 -12h37v-215h-553v215h16q34 0 50 12t16 54v565h-181q-4 -67 -8 -219q-8 -323 -53 -441q-79 -209 -295 -209q-73 0 -143 33v312q49 -17 84 -17q57 0 81.5 43.5t31 122t14.5 307.5q0 64 -13 78
t-55 14h-59v215z" />
    <glyph glyph-name="afii10078" unicode="&#xec;" horiz-adv-x="1628" 
d="M96 1085h545l193 -426l153 426h545v-215h-37q-27 0 -45 -11t-18 -54v-524q0 -42 17 -54t46 -12h37v-215h-549v215h16q35 0 49.5 11.5t14.5 54.5v385l-207 -568h-160l-260 568v-385q0 -36 12.5 -51t55.5 -15h10v-215h-418v215h35q36 0 51 11.5t15 54.5v524
q0 44 -16.5 54.5t-49.5 10.5h-35v215z" />
    <glyph glyph-name="afii10078" unicode="&#x43c;" horiz-adv-x="1628" 
d="M96 1085h545l193 -426l153 426h545v-215h-37q-27 0 -45 -11t-18 -54v-524q0 -42 17 -54t46 -12h37v-215h-549v215h16q35 0 49.5 11.5t14.5 54.5v385l-207 -568h-160l-260 568v-385q0 -36 12.5 -51t55.5 -15h10v-215h-418v215h35q36 0 51 11.5t15 54.5v524
q0 44 -16.5 54.5t-49.5 10.5h-35v215z" />
    <glyph glyph-name="afii10079" unicode="&#xed;" horiz-adv-x="1374" 
d="M639 1085v-215h-8q-33 0 -48.5 -11t-15.5 -54v-133h240v133q0 43 -15 54t-49 11h-8v215h543v-215h-39q-34 0 -48.5 -12t-14.5 -53v-524q0 -42 16.5 -54t46.5 -12h39v-215h-543v215h8q33 0 48.5 12t15.5 54v151h-240v-151q0 -42 16 -54t48 -12h8v-215h-543v215h37
q34 0 50 12t16 54v524q0 36 -12 50.5t-54 14.5h-37v215h543z" />
    <glyph glyph-name="afii10079" unicode="&#x43d;" horiz-adv-x="1374" 
d="M639 1085v-215h-8q-33 0 -48.5 -11t-15.5 -54v-133h240v133q0 43 -15 54t-49 11h-8v215h543v-215h-39q-34 0 -48.5 -12t-14.5 -53v-524q0 -42 16.5 -54t46.5 -12h39v-215h-543v215h8q33 0 48.5 12t15.5 54v151h-240v-151q0 -42 16 -54t48 -12h8v-215h-543v215h37
q34 0 50 12t16 54v524q0 36 -12 50.5t-54 14.5h-37v215h543z" />
    <glyph glyph-name="afii10080" unicode="&#xee;" horiz-adv-x="1204" 
d="M602 1108q124 0 236.5 -44t197.5 -151q38 -47 65.5 -109t41.5 -129.5t14 -131.5q0 -226 -113 -375q-66 -87 -187 -139t-255 -52q-132 0 -254 52t-188 139q-113 149 -113 375q0 98 33 199t88 171q65 81 173 138t261 57zM602 870q-80 0 -103.5 -75.5t-23.5 -200.5v-102
q0 -173 34.5 -225t92.5 -52q59 0 93 52t34 225v102q0 125 -23.5 200.5t-103.5 75.5z" />
    <glyph glyph-name="afii10080" unicode="&#x43e;" horiz-adv-x="1204" 
d="M602 1108q124 0 236.5 -44t197.5 -151q38 -47 65.5 -109t41.5 -129.5t14 -131.5q0 -226 -113 -375q-66 -87 -187 -139t-255 -52q-132 0 -254 52t-188 139q-113 149 -113 375q0 98 33 199t88 171q65 81 173 138t261 57zM602 870q-80 0 -103.5 -75.5t-23.5 -200.5v-102
q0 -173 34.5 -225t92.5 -52q59 0 93 52t34 225v102q0 125 -23.5 200.5t-103.5 75.5z" />
    <glyph glyph-name="afii10081" unicode="&#xef;" horiz-adv-x="1368" 
d="M98 0v215h39q39 0 51.5 15.5t12.5 50.5v524q0 31 -11 48t-53 17h-41v215h1176v-215h-39q-43 0 -53.5 -16t-10.5 -49v-524q0 -43 15 -54.5t49 -11.5h39v-215h-549v215h10q43 0 54.5 15.5t11.5 50.5v565h-230v-565q0 -42 17 -54t49 -12h10v-215h-547z" />
    <glyph glyph-name="afii10081" unicode="&#x43f;" horiz-adv-x="1368" 
d="M98 0v215h39q39 0 51.5 15.5t12.5 50.5v524q0 31 -11 48t-53 17h-41v215h1176v-215h-39q-43 0 -53.5 -16t-10.5 -49v-524q0 -43 15 -54.5t49 -11.5h39v-215h-549v215h10q43 0 54.5 15.5t11.5 50.5v565h-230v-565q0 -42 17 -54t49 -12h10v-215h-547z" />
    <glyph glyph-name="afii10082" unicode="&#xf0;" horiz-adv-x="1298" 
d="M567 41v-191q0 -40 16.5 -52.5t47.5 -12.5h80v-215h-615v215h35q32 0 50 11t18 54v955q0 40 -16.5 52.5t-51.5 12.5h-35v215h404l37 -100h8q89 72 137.5 97.5t130.5 25.5q167 0 265 -87.5t135.5 -212t37.5 -259.5q0 -69 -19 -160.5t-70.5 -186.5t-150.5 -160t-249 -65
q-63 0 -107.5 17t-87.5 47zM567 764v-473q43 -74 115 -74q128 0 135 176l3 41.5t2 22.5t1 26v105v67q0 109 -23 162t-104 53q-100 0 -129 -106z" />
    <glyph glyph-name="afii10082" unicode="&#x440;" horiz-adv-x="1298" 
d="M567 41v-191q0 -40 16.5 -52.5t47.5 -12.5h80v-215h-615v215h35q32 0 50 11t18 54v955q0 40 -16.5 52.5t-51.5 12.5h-35v215h404l37 -100h8q89 72 137.5 97.5t130.5 25.5q167 0 265 -87.5t135.5 -212t37.5 -259.5q0 -69 -19 -160.5t-70.5 -186.5t-150.5 -160t-249 -65
q-63 0 -107.5 17t-87.5 47zM567 764v-473q43 -74 115 -74q128 0 135 176l3 41.5t2 22.5t1 26v105v67q0 109 -23 162t-104 53q-100 0 -129 -106z" />
    <glyph glyph-name="afii10083" unicode="&#xf1;" horiz-adv-x="1169" 
d="M725 434h397q0 -94 -34 -176.5t-102.5 -147t-165 -99t-218.5 -34.5q-129 0 -251 50t-191 141q-113 149 -113 375q0 99 32.5 199t88.5 171q152 195 432 195q202 0 315 -82.5t153 -181t48 -176.5h-393q0 92 -32 147t-89 55q-78 0 -102.5 -70t-24.5 -204v-104
q0 -166 32 -220.5t95 -54.5q41 0 82 40t41 177z" />
    <glyph glyph-name="afii10083" unicode="&#x441;" horiz-adv-x="1169" 
d="M725 434h397q0 -94 -34 -176.5t-102.5 -147t-165 -99t-218.5 -34.5q-129 0 -251 50t-191 141q-113 149 -113 375q0 99 32.5 199t88.5 171q152 195 432 195q202 0 315 -82.5t153 -181t48 -176.5h-393q0 92 -32 147t-89 55q-78 0 -102.5 -70t-24.5 -204v-104
q0 -166 32 -220.5t95 -54.5q41 0 82 40t41 177z" />
    <glyph glyph-name="afii10084" unicode="&#xf2;" horiz-adv-x="1143" 
d="M47 1085h1049v-393h-213l-4 37q-8 76 -20 96.5t-66 20.5h-37v-565q0 -29 8 -43.5t20.5 -18.5t34.5 -4h58v-215h-611v215h58q34 0 48.5 11.5t14.5 54.5v565h-35q-51 0 -65.5 -16.5t-16.5 -47.5q0 -14 -2 -22q0 -4 -2 -15t-2 -16l-2 -37h-215v393z" />
    <glyph glyph-name="afii10084" unicode="&#x442;" horiz-adv-x="1143" 
d="M47 1085h1049v-393h-213l-4 37q-8 76 -20 96.5t-66 20.5h-37v-565q0 -29 8 -43.5t20.5 -18.5t34.5 -4h58v-215h-611v215h58q34 0 48.5 11.5t14.5 54.5v565h-35q-51 0 -65.5 -16.5t-16.5 -47.5q0 -14 -2 -22q0 -4 -2 -15t-2 -16l-2 -37h-215v393z" />
    <glyph glyph-name="afii10085" unicode="&#xf3;" horiz-adv-x="1214" 
d="M1214 1085v-215h-43q-27 0 -38.5 -9.5t-17 -24t-32.5 -95.5l-270 -782q-52 -153 -103.5 -252t-130.5 -156t-200 -57q-67 0 -135 37l2 313q43 -20 86 -20q117 0 131 174l-340 795q-22 51 -40.5 64t-59.5 13h-23v215h641v-215h-66q-40 0 -40 -24q0 -4 6 -27q10 -34 12 -39
l145 -336h21l112 353q11 26 11 47q0 10 -6 18t-17 8h-67v215h462z" />
    <glyph glyph-name="afii10085" unicode="&#x443;" horiz-adv-x="1214" 
d="M1214 1085v-215h-43q-27 0 -38.5 -9.5t-17 -24t-32.5 -95.5l-270 -782q-52 -153 -103.5 -252t-130.5 -156t-200 -57q-67 0 -135 37l2 313q43 -20 86 -20q117 0 131 174l-340 795q-22 51 -40.5 64t-59.5 13h-23v215h641v-215h-66q-40 0 -40 -24q0 -4 6 -27q10 -34 12 -39
l145 -336h21l112 353q11 26 11 47q0 10 -6 18t-17 8h-67v215h462z" />
    <glyph glyph-name="afii10086" unicode="&#xf4;" horiz-adv-x="1700" 
d="M528 1602h506v-517q62 25 135 25q107 0 189.5 -46.5t128.5 -92.5q53 -52 91 -125.5t56.5 -153.5t18.5 -149q0 -95 -26 -191.5t-83 -182.5t-150 -139t-225 -53q-81 0 -135 25v-152q0 -33 12.5 -49t53.5 -16h71v-215h-643v215h72q41 0 53.5 16t12.5 49v152
q-54 -25 -136 -25q-131 0 -223 53t-150.5 141t-84 185t-25.5 187q0 69 18.5 149t57 155t90.5 124t131.5 94t185.5 45q73 0 136 -25v236q0 35 -12.5 50t-53.5 15h-72v216zM666 219v651q-36 25 -54 25q-68 0 -100.5 -46t-39.5 -114.5t-7 -187.5q0 -27 0.5 -28t1 -10.5
t2.5 -57.5q2 -118 26.5 -189.5t112.5 -71.5q27 0 58 29zM1034 219q31 -29 58 -29q88 0 112.5 69.5t26.5 191.5q1 50 2.5 57.5t1.5 38.5q0 119 -7 187.5t-39.5 114.5t-101.5 46q-17 0 -53 -25v-651z" />
    <glyph glyph-name="afii10086" unicode="&#x444;" horiz-adv-x="1700" 
d="M528 1602h506v-517q62 25 135 25q107 0 189.5 -46.5t128.5 -92.5q53 -52 91 -125.5t56.5 -153.5t18.5 -149q0 -95 -26 -191.5t-83 -182.5t-150 -139t-225 -53q-81 0 -135 25v-152q0 -33 12.5 -49t53.5 -16h71v-215h-643v215h72q41 0 53.5 16t12.5 49v152
q-54 -25 -136 -25q-131 0 -223 53t-150.5 141t-84 185t-25.5 187q0 69 18.5 149t57 155t90.5 124t131.5 94t185.5 45q73 0 136 -25v236q0 35 -12.5 50t-53.5 15h-72v216zM666 219v651q-36 25 -54 25q-68 0 -100.5 -46t-39.5 -114.5t-7 -187.5q0 -27 0.5 -28t1 -10.5
t2.5 -57.5q2 -118 26.5 -189.5t112.5 -71.5q27 0 58 29zM1034 219q31 -29 58 -29q88 0 112.5 69.5t26.5 191.5q1 50 2.5 57.5t1.5 38.5q0 119 -7 187.5t-39.5 114.5t-101.5 46q-17 0 -53 -25v-651z" />
    <glyph glyph-name="afii10087" unicode="&#xf5;" horiz-adv-x="1212" 
d="M578 1085v-215h-25q-4 0 -9 -4t-5 -10q0 -4 6 -12t8 -13l76 -108h4l65 108q2 3 5 9t6.5 11.5t3.5 8.5q0 2 -0.5 3l-1.5 3q-4 4 -6 4h-33v215h465v-215q-63 -2 -90 -12t-54 -53l-141 -232l203 -264l28 -33l10 -12.5t5 -7.5q20 -28 33 -34.5t38 -6.5h21v-215h-578v215h35
q21 0 21 16q0 12 -2.5 17.5t-6.5 9t-6 6.5l-96 123l-76 -123q-4 -6 -5 -9.5t-7 -12.5q-1 -2 -3.5 -5.5t-2.5 -7.5q0 -14 24 -14h21v-215h-485v215h38q55 0 77 14t50 60l146 239l-191 271q-24 37 -44.5 54t-55.5 17h-18v215h553z" />
    <glyph glyph-name="afii10087" unicode="&#x445;" horiz-adv-x="1212" 
d="M578 1085v-215h-25q-4 0 -9 -4t-5 -10q0 -4 6 -12t8 -13l76 -108h4l65 108q2 3 5 9t6.5 11.5t3.5 8.5q0 2 -0.5 3l-1.5 3q-4 4 -6 4h-33v215h465v-215q-63 -2 -90 -12t-54 -53l-141 -232l203 -264l28 -33l10 -12.5t5 -7.5q20 -28 33 -34.5t38 -6.5h21v-215h-578v215h35
q21 0 21 16q0 12 -2.5 17.5t-6.5 9t-6 6.5l-96 123l-76 -123q-4 -6 -5 -9.5t-7 -12.5q-1 -2 -3.5 -5.5t-2.5 -7.5q0 -14 24 -14h21v-215h-485v215h38q55 0 77 14t50 60l146 239l-191 271q-24 37 -44.5 54t-55.5 17h-18v215h553z" />
    <glyph glyph-name="afii10088" unicode="&#xf6;" horiz-adv-x="1391" 
d="M96 0v215h35q43 0 53.5 15.5t10.5 50.5v524q0 33 -11.5 49t-50.5 16h-37v215h543v-215h-10q-33 0 -49.5 -12.5t-16.5 -52.5v-565h238v565q0 44 -16.5 54.5t-49.5 10.5h-8v215h547v-215h-39q-33 0 -49.5 -12.5t-16.5 -52.5v-524q0 -35 14.5 -50.5t51.5 -15.5h68v-494h-224
l-30 173q-12 71 -23.5 88.5t-50.5 17.5h-879z" />
    <glyph glyph-name="afii10088" unicode="&#x446;" horiz-adv-x="1391" 
d="M96 0v215h35q43 0 53.5 15.5t10.5 50.5v524q0 33 -11.5 49t-50.5 16h-37v215h543v-215h-10q-33 0 -49.5 -12.5t-16.5 -52.5v-565h238v565q0 44 -16.5 54.5t-49.5 10.5h-8v215h547v-215h-39q-33 0 -49.5 -12.5t-16.5 -52.5v-524q0 -35 14.5 -50.5t51.5 -15.5h68v-494h-224
l-30 173q-12 71 -23.5 88.5t-50.5 17.5h-879z" />
    <glyph glyph-name="afii10089" unicode="&#xf7;" horiz-adv-x="1329" 
d="M592 1085v-215q-43 0 -56.5 -17t-15.5 -48v-43q0 -91 26 -120.5t105 -29.5q56 0 111 11v182q0 65 -68 65v215h539v-215h-39q-43 0 -53.5 -16t-10.5 -49v-524q0 -43 15 -54.5t49 -11.5h39v-215h-592v215h23q44 0 65.5 6t27 20t5.5 42v106q-96 -16 -205 -16q-135 0 -219 24
t-123 64.5t-49 84t-12 109.5q0 28 -0.5 32.5t-1 8.5t-0.5 31v86q0 38 -17 47.5t-47 9.5h-41v215h545z" />
    <glyph glyph-name="afii10089" unicode="&#x447;" horiz-adv-x="1329" 
d="M592 1085v-215q-43 0 -56.5 -17t-15.5 -48v-43q0 -91 26 -120.5t105 -29.5q56 0 111 11v182q0 65 -68 65v215h539v-215h-39q-43 0 -53.5 -16t-10.5 -49v-524q0 -43 15 -54.5t49 -11.5h39v-215h-592v215h23q44 0 65.5 6t27 20t5.5 42v106q-96 -16 -205 -16q-135 0 -219 24
t-123 64.5t-49 84t-12 109.5q0 28 -0.5 32.5t-1 8.5t-0.5 31v86q0 38 -17 47.5t-47 9.5h-41v215h545z" />
    <glyph glyph-name="afii10090" unicode="&#xf8;" horiz-adv-x="1974" 
d="M98 0v215h37q39 0 51.5 13t12.5 55v522q0 36 -12 50.5t-54 14.5h-37v215h545v-215h-8q-41 0 -53.5 -15t-12.5 -50v-565h236v565q0 40 -15 52.5t-49 12.5h-10v215h516v-215h-8q-30 0 -48 -11t-18 -54v-565h236v565q0 36 -13.5 50.5t-50.5 14.5h-10v215h545v-215h-39
q-35 0 -49 -15t-14 -50v-522q0 -38 14.5 -53t48.5 -15h39v-215h-1780z" />
    <glyph glyph-name="afii10090" unicode="&#x448;" horiz-adv-x="1974" 
d="M98 0v215h37q39 0 51.5 13t12.5 55v522q0 36 -12 50.5t-54 14.5h-37v215h545v-215h-8q-41 0 -53.5 -15t-12.5 -50v-565h236v565q0 40 -15 52.5t-49 12.5h-10v215h516v-215h-8q-30 0 -48 -11t-18 -54v-565h236v565q0 36 -13.5 50.5t-50.5 14.5h-10v215h545v-215h-39
q-35 0 -49 -15t-14 -50v-522q0 -38 14.5 -53t48.5 -15h39v-215h-1780z" />
    <glyph glyph-name="afii10091" unicode="&#xf9;" horiz-adv-x="1966" 
d="M1878 1085v-215h-39q-35 0 -49 -15t-14 -50v-522q0 -38 14.5 -53t48.5 -15h39v-518h-209l-31 197q-10 63 -20.5 84.5t-52.5 21.5h-1467v215h37q39 0 51.5 13t12.5 55v522q0 36 -12 50.5t-54 14.5h-37v215h545v-215h-8q-41 0 -53.5 -15t-12.5 -50v-565h236v565
q0 40 -15 52.5t-49 12.5h-10v215h516v-215h-8q-30 0 -48 -11t-18 -54v-565h236v565q0 36 -13.5 50.5t-50.5 14.5h-10v215h545z" />
    <glyph glyph-name="afii10091" unicode="&#x449;" horiz-adv-x="1966" 
d="M1878 1085v-215h-39q-35 0 -49 -15t-14 -50v-522q0 -38 14.5 -53t48.5 -15h39v-518h-209l-31 197q-10 63 -20.5 84.5t-52.5 21.5h-1467v215h37q39 0 51.5 13t12.5 55v522q0 36 -12 50.5t-54 14.5h-37v215h545v-215h-8q-41 0 -53.5 -15t-12.5 -50v-565h236v565
q0 40 -15 52.5t-49 12.5h-10v215h516v-215h-8q-30 0 -48 -11t-18 -54v-565h236v565q0 36 -13.5 50.5t-50.5 14.5h-10v215h545z" />
    <glyph glyph-name="afii10092" unicode="&#xfa;" horiz-adv-x="1389" 
d="M874 1085v-215h-36q-33 0 -49.5 -10.5t-16.5 -54.5v-105h41q231 0 350.5 -34t161 -105t41.5 -196t-52 -204.5t-183 -120t-359 -40.5h-471v215h37q34 0 49.5 12t15.5 54v565h-18q-43 0 -59.5 -4.5t-22 -14t-10.5 -34.5q-2 -10 -5.5 -21t-4.5 -18l-19 -95h-217v426h827z
M772 240h27q64 0 102.5 22t38.5 103q0 65 -29.5 92.5t-101.5 27.5h-37v-245z" />
    <glyph glyph-name="afii10092" unicode="&#x44a;" horiz-adv-x="1389" 
d="M874 1085v-215h-36q-33 0 -49.5 -10.5t-16.5 -54.5v-105h41q231 0 350.5 -34t161 -105t41.5 -196t-52 -204.5t-183 -120t-359 -40.5h-471v215h37q34 0 49.5 12t15.5 54v565h-18q-43 0 -59.5 -4.5t-22 -14t-10.5 -34.5q-2 -10 -5.5 -21t-4.5 -18l-19 -95h-217v426h827z
M772 240h27q64 0 102.5 22t38.5 103q0 65 -29.5 92.5t-101.5 27.5h-37v-245z" />
    <glyph glyph-name="afii10093" unicode="&#xfb;" horiz-adv-x="1870" 
d="M96 0v215h37q44 0 55 10t11 56v524q0 40 -16.5 52.5t-49.5 12.5h-37v215h574v-215h-43q-60 0 -60 -53v-117h41q148 0 244 -12.5t166 -50t107.5 -109.5t37.5 -192q0 -117 -52.5 -190t-181.5 -109.5t-362 -36.5h-471zM567 240h27q65 0 103 22t38 103q0 64 -30.5 92
t-100.5 28h-37v-245zM1210 0v215h29q33 0 48.5 12t15.5 54v524q0 40 -15 52.5t-49 12.5h-39v215h574v-215h-39q-31 0 -47.5 -10.5t-16.5 -54.5v-524q0 -44 15.5 -55t48.5 -11h39v-215h-564z" />
    <glyph glyph-name="afii10093" unicode="&#x44b;" horiz-adv-x="1870" 
d="M96 0v215h37q44 0 55 10t11 56v524q0 40 -16.5 52.5t-49.5 12.5h-37v215h574v-215h-43q-60 0 -60 -53v-117h41q148 0 244 -12.5t166 -50t107.5 -109.5t37.5 -192q0 -117 -52.5 -190t-181.5 -109.5t-362 -36.5h-471zM567 240h27q65 0 103 22t38 103q0 64 -30.5 92
t-100.5 28h-37v-245zM1210 0v215h29q33 0 48.5 12t15.5 54v524q0 40 -15 52.5t-49 12.5h-39v215h574v-215h-39q-31 0 -47.5 -10.5t-16.5 -54.5v-524q0 -44 15.5 -55t48.5 -11h39v-215h-564z" />
    <glyph glyph-name="afii10094" unicode="&#xfc;" horiz-adv-x="1186" 
d="M96 0v215h37q44 0 55 10t11 56v524q0 40 -16.5 52.5t-49.5 12.5h-37v215h574v-215h-43q-60 0 -60 -53v-117h41q148 0 244 -12.5t166 -50t107.5 -109.5t37.5 -192q0 -117 -52.5 -190t-181.5 -109.5t-362 -36.5h-471zM567 240h27q65 0 103 22t38 103q0 64 -30.5 92
t-100.5 28h-37v-245z" />
    <glyph glyph-name="afii10094" unicode="&#x44c;" horiz-adv-x="1186" 
d="M96 0v215h37q44 0 55 10t11 56v524q0 40 -16.5 52.5t-49.5 12.5h-37v215h574v-215h-43q-60 0 -60 -53v-117h41q148 0 244 -12.5t166 -50t107.5 -109.5t37.5 -192q0 -117 -52.5 -190t-181.5 -109.5t-362 -36.5h-471zM567 240h27q65 0 103 22t38 103q0 64 -30.5 92
t-100.5 28h-37v-245z" />
    <glyph glyph-name="afii10095" unicode="&#xfd;" horiz-adv-x="1178" 
d="M459 727h-391q13 106 75.5 193.5t168.5 137.5t245 50q313 0 461 -199q53 -71 82.5 -168t29.5 -196q0 -93 -20.5 -189t-89.5 -188q-67 -88 -186 -139.5t-254 -51.5q-141 0 -244 37.5t-167.5 102t-93 141.5t-28.5 154h408v-45q0 -84 41 -118t84 -34q73 0 99 57t26 172h-205
v240h205q0 94 -23.5 140t-97.5 46q-61 0 -89 -36.5t-36 -106.5z" />
    <glyph glyph-name="afii10095" unicode="&#x44d;" horiz-adv-x="1178" 
d="M459 727h-391q13 106 75.5 193.5t168.5 137.5t245 50q313 0 461 -199q53 -71 82.5 -168t29.5 -196q0 -93 -20.5 -189t-89.5 -188q-67 -88 -186 -139.5t-254 -51.5q-141 0 -244 37.5t-167.5 102t-93 141.5t-28.5 154h408v-45q0 -84 41 -118t84 -34q73 0 99 57t26 172h-205
v240h205q0 94 -23.5 140t-97.5 46q-61 0 -89 -36.5t-36 -106.5z" />
    <glyph glyph-name="afii10096" unicode="&#xfe;" horiz-adv-x="1888" 
d="M567 672h178q7 118 83.5 218t198.5 159t261 59q154 0 263 -57t171 -138q61 -77 90 -175t29 -195q0 -89 -20.5 -187.5t-89.5 -187.5q-72 -92 -194 -141.5t-249 -49.5q-164 0 -284.5 62t-186 166t-74.5 227h-176v-151q0 -41 16.5 -53.5t49.5 -12.5h8v-215h-545v215h37
q34 0 50 12t16 54v524q0 36 -12 50.5t-54 14.5h-37v215h545v-215h-8q-29 0 -47.5 -11t-18.5 -54v-133zM1288 870q-78 0 -102.5 -72t-24.5 -204v-102q0 -108 15.5 -170t42.5 -83.5t69 -21.5q57 0 91 51.5t34 223.5v102q0 130 -24 203t-101 73z" />
    <glyph glyph-name="afii10096" unicode="&#x44e;" horiz-adv-x="1888" 
d="M567 672h178q7 118 83.5 218t198.5 159t261 59q154 0 263 -57t171 -138q61 -77 90 -175t29 -195q0 -89 -20.5 -187.5t-89.5 -187.5q-72 -92 -194 -141.5t-249 -49.5q-164 0 -284.5 62t-186 166t-74.5 227h-176v-151q0 -41 16.5 -53.5t49.5 -12.5h8v-215h-545v215h37
q34 0 50 12t16 54v524q0 36 -12 50.5t-54 14.5h-37v215h545v-215h-8q-29 0 -47.5 -11t-18.5 -54v-133zM1288 870q-78 0 -102.5 -72t-24.5 -204v-102q0 -108 15.5 -170t42.5 -83.5t69 -21.5q57 0 91 51.5t34 223.5v102q0 130 -24 203t-101 73z" />
    <glyph glyph-name="afii10097" unicode="&#xff;" horiz-adv-x="1253" 
d="M1157 1085v-215h-35q-36 0 -50.5 -15t-14.5 -50v-524q0 -29 8 -43.5t20.5 -18.5t34.5 -4h37v-215h-555v215h23q63 0 63 41v160q-57 0 -77.5 -28.5t-39.5 -82.5q-42 -141 -92.5 -211.5t-107.5 -93.5t-131 -23q-87 0 -168 33v312q22 -11 51 -11q20 0 32.5 4t21.5 14t13 21
t7 21q25 74 89 108.5t138 36.5v14q-32 -4 -49 -4q-126 0 -203.5 80t-77.5 193q0 176 132.5 231t346.5 55h584zM688 846h-63q-136 0 -136 -123q0 -56 41.5 -77t128.5 -21h29v221z" />
    <glyph glyph-name="afii10097" unicode="&#x44f;" horiz-adv-x="1253" 
d="M1157 1085v-215h-35q-36 0 -50.5 -15t-14.5 -50v-524q0 -29 8 -43.5t20.5 -18.5t34.5 -4h37v-215h-555v215h23q63 0 63 41v160q-57 0 -77.5 -28.5t-39.5 -82.5q-42 -141 -92.5 -211.5t-107.5 -93.5t-131 -23q-87 0 -168 33v312q22 -11 51 -11q20 0 32.5 4t21.5 14t13 21
t7 21q25 74 89 108.5t138 36.5v14q-32 -4 -49 -4q-126 0 -203.5 80t-77.5 193q0 176 132.5 231t346.5 55h584zM688 846h-63q-136 0 -136 -123q0 -56 41.5 -77t128.5 -21h29v221z" />
  </font>
</defs>
</svg>
